<svg width="100" height="105" viewBox="0 0 100 105" fill="none" xmlns="http://www.w3.org/2000/svg">
  <g filter="url(#filter0_d_111_57)">
    <path
      d="M26.4332 9.77782C27.7571 9.67651 28.8104 10.8697 28.5457 12.1708L28.2839 13.457C28.2048 13.8461 28.2432 14.25 28.3944 14.6172L28.894 15.8309C29.3995 17.0587 28.5902 18.4292 27.271 18.5794L25.9668 18.728C25.5723 18.7729 25.2001 18.9343 24.8976 19.1915L23.8976 20.0418C22.8861 20.9019 21.3327 20.5558 20.7821 19.3475L20.2378 18.1531C20.0731 17.7918 19.8047 17.4876 19.4665 17.2794L18.3489 16.5912C17.2183 15.895 17.0675 14.3106 18.0464 13.4136L19.0142 12.5268C19.307 12.2586 19.5132 11.9092 19.6068 11.5233L19.916 10.2477C20.2287 8.95726 21.689 8.32423 22.8446 8.97809L23.987 9.62448C24.3326 9.82002 24.7286 9.90826 25.1245 9.87797L26.4332 9.77782Z"
      fill="#FFCD1D" />
  </g>
  <g filter="url(#filter1_d_111_57)">
    <path
      d="M25.1164 81.2392C25.9394 80.1973 27.5305 80.2317 28.3076 81.3084L29.0758 82.3727C29.3082 82.6947 29.6312 82.9402 30.0036 83.0779L31.2346 83.5334C32.4799 83.9941 32.9388 85.518 32.155 86.5898L31.3802 87.6492C31.1458 87.9698 31.0121 88.3528 30.9961 88.7495L30.9434 90.0611C30.8901 91.3878 29.5825 92.2952 28.321 91.8809L27.074 91.4714C26.6967 91.3475 26.2911 91.3387 25.9088 91.4461L24.6452 91.8013C23.367 92.1605 22.0999 91.1974 22.1041 89.8696L22.1082 88.557C22.1095 88.16 21.9925 87.7715 21.7722 87.4411L21.0439 86.3491C20.3073 85.2444 20.8317 83.7418 22.0958 83.3354L23.3454 82.9337C23.7234 82.8122 24.0567 82.5809 24.3029 82.2693L25.1164 81.2392Z"
      fill="#FFCD1D" />
  </g>
  <g filter="url(#filter2_d_111_57)">
    <path
      d="M78.1164 86.2392C78.9394 85.1973 80.5305 85.2317 81.3076 86.3084L82.0758 87.3727C82.3082 87.6947 82.6312 87.9402 83.0036 88.0779L84.2346 88.5334C85.4799 88.9941 85.9388 90.518 85.155 91.5898L84.3802 92.6492C84.1458 92.9698 84.0121 93.3528 83.9961 93.7495L83.9434 95.0611C83.8901 96.3878 82.5825 97.2952 81.321 96.8809L80.074 96.4714C79.6967 96.3475 79.2911 96.3387 78.9088 96.4461L77.6452 96.8013C76.367 97.1605 75.0999 96.1974 75.1041 94.8696L75.1082 93.557C75.1095 93.16 74.9925 92.7715 74.7722 92.4411L74.0439 91.3491C73.3073 90.2444 73.8317 88.7418 75.0958 88.3354L76.3454 87.9337C76.7234 87.8122 77.0567 87.5809 77.3029 87.2693L78.1164 86.2392Z"
      fill="#FFCD1D" />
  </g>
  <line x1="69.4381" y1="70.759" x2="80.4381" y2="90.759" stroke="#FFCD1D" stroke-opacity="0.44" />
  <line x1="37.9524" y1="75.3536" x2="26.9524" y2="86.3536" stroke="#FFCD1D" stroke-opacity="0.44" />
  <line x1="33.1402" y1="44.5058" x2="23.2579" y2="14.7171" stroke="#FFCD1D" stroke-opacity="0.44" />
  <g filter="url(#filter3_d_111_57)">
    <path
      d="M65.8767 75.2385C64.5509 75.1677 63.6608 73.8484 64.0916 72.5924L64.5175 71.3509C64.6463 70.9753 64.6605 70.5698 64.5581 70.1862L64.2196 68.918C63.8772 67.6351 64.8569 66.3809 66.1845 66.4025L67.497 66.4239C67.894 66.4304 68.2839 66.3185 68.6172 66.1026L69.7187 65.3888C70.833 64.6667 72.3286 65.2109 72.7183 66.4802L73.1035 67.735C73.22 68.1146 73.4469 68.4509 73.7552 68.7011L74.7745 69.5281C75.8056 70.3647 75.7502 71.9553 74.6634 72.7182L73.5891 73.4723C73.264 73.7004 73.0143 74.0201 72.8716 74.3907L72.4 75.6156C71.923 76.8548 70.3931 77.2936 69.3318 76.4957L68.2826 75.707C67.9652 75.4684 67.584 75.3297 67.1875 75.3085L65.8767 75.2385Z"
      fill="#FFCD1D" />
  </g>
  <g filter="url(#filter4_d_111_57)">
    <path
      d="M33.6446 79.8696C32.3187 79.7988 31.4286 78.4794 31.8594 77.2235L32.2853 75.9819C32.4142 75.6063 32.4283 75.2009 32.3259 74.8172L31.9874 73.549C31.645 72.2662 32.6248 71.0119 33.9524 71.0336L35.2648 71.055C35.6618 71.0614 36.0518 70.9496 36.385 70.7336L37.4865 70.0198C38.6008 69.2978 40.0964 69.842 40.4861 71.1113L40.8713 72.3661C40.9878 72.7457 41.2147 73.082 41.5231 73.3322L42.5423 74.1592C43.5734 74.9958 43.518 76.5864 42.4312 77.3492L41.3569 78.1034C41.0319 78.3315 40.7821 78.6512 40.6395 79.0218L40.1679 80.2467C39.6908 81.4858 38.161 81.9247 37.0996 81.1268L36.0504 80.3381C35.733 80.0995 35.3518 79.9608 34.9553 79.9396L33.6446 79.8696Z"
      fill="#FFCD1D" />
  </g>
  <g filter="url(#filter5_d_111_57)">
    <path
      d="M63.8653 50.4956C62.5394 50.4248 61.6493 49.1054 62.0801 47.8495L62.506 46.6079C62.6349 46.2323 62.649 45.8269 62.5466 45.4432L62.2081 44.175C61.8657 42.8921 62.8455 41.6379 64.1731 41.6595L65.4855 41.6809C65.8825 41.6874 66.2725 41.5755 66.6057 41.3596L67.7072 40.6458C68.8215 39.9237 70.3171 40.468 70.7068 41.7373L71.092 42.992C71.2085 43.3716 71.4354 43.708 71.7438 43.9581L72.763 44.7852C73.7941 45.6218 73.7387 47.2124 72.6519 47.9752L71.5776 48.7293C71.2526 48.9575 71.0028 49.2772 70.8602 49.6477L70.3886 50.8727C69.9115 52.1118 68.3817 52.5506 67.3203 51.7528L66.2711 50.9641C65.9537 50.7255 65.5725 50.5867 65.176 50.5656L63.8653 50.4956Z"
      fill="#FFCD1D" />
  </g>
  <g filter="url(#filter6_d_111_57)">
    <path
      d="M30.1006 48.8059C28.7747 48.7351 27.8846 47.4157 28.3155 46.1597L28.7414 44.9182C28.8702 44.5426 28.8843 44.1371 28.7819 43.7535L28.4435 42.4853C28.1011 41.2024 29.0808 39.9482 30.4084 39.9698L31.7208 39.9912C32.1179 39.9977 32.5078 39.8858 32.8411 39.6699L33.9426 38.9561C35.0569 38.234 36.5525 38.7782 36.9421 40.0475L37.3274 41.3023C37.4439 41.6819 37.6708 42.0182 37.9791 42.2684L38.9984 43.0955C40.0294 43.9321 39.974 45.5227 38.8873 46.2855L37.8129 47.0396C37.4879 47.2677 37.2382 47.5875 37.0955 47.958L36.6239 49.183C36.1469 50.4221 34.617 50.8609 33.5557 50.0631L32.5065 49.2743C32.1891 49.0357 31.8079 48.897 31.4113 48.8758L30.1006 48.8059Z"
      fill="#FFCD1D" />
  </g>
  <line x1="67.8848" y1="46.1546" x2="69.8961" y2="70.8974" stroke="#FFCD1D" stroke-opacity="0.44" />
  <line x1="37.0531" y1="75.2964" x2="69.3233" y2="70.4432" stroke="#FFCD1D" stroke-opacity="0.44" />
  <line x1="36.6312" y1="75.852" x2="32.7817" y2="44.6281" stroke="#FFCD1D" stroke-opacity="0.44" />
  <line x1="33.6529" y1="44.0062" x2="66.8569" y2="46.074" stroke="#FFCD1D" stroke-opacity="0.44" />
  <defs>
    <filter id="filter0_d_111_57" x="9.39746" y="0.717499" width="27.6487" height="27.8012" filterUnits="userSpaceOnUse"
      color-interpolation-filters="sRGB">
      <feFlood flood-opacity="0" result="BackgroundImageFix" />
      <feColorMatrix in="SourceAlpha" type="matrix" values="0 0 0 0 0 0 0 0 0 0 0 0 0 0 0 0 0 0 127 0"
        result="hardAlpha" />
      <feOffset />
      <feGaussianBlur stdDeviation="4" />
      <feComposite in2="hardAlpha" operator="out" />
      <feColorMatrix type="matrix" values="0 0 0 0 1 0 0 0 0 0.80475 0 0 0 0 0.1125 0 0 0 1 0" />
      <feBlend mode="normal" in2="BackgroundImageFix" result="effect1_dropShadow_111_57" />
      <feBlend mode="normal" in="SourceGraphic" in2="effect1_dropShadow_111_57" result="shape" />
    </filter>
    <filter id="filter1_d_111_57" x="12.7068" y="72.4789" width="27.8347" height="27.5032" filterUnits="userSpaceOnUse"
      color-interpolation-filters="sRGB">
      <feFlood flood-opacity="0" result="BackgroundImageFix" />
      <feColorMatrix in="SourceAlpha" type="matrix" values="0 0 0 0 0 0 0 0 0 0 0 0 0 0 0 0 0 0 127 0"
        result="hardAlpha" />
      <feOffset />
      <feGaussianBlur stdDeviation="4" />
      <feComposite in2="hardAlpha" operator="out" />
      <feColorMatrix type="matrix" values="0 0 0 0 1 0 0 0 0 0.80475 0 0 0 0 0.1125 0 0 0 1 0" />
      <feBlend mode="normal" in2="BackgroundImageFix" result="effect1_dropShadow_111_57" />
      <feBlend mode="normal" in="SourceGraphic" in2="effect1_dropShadow_111_57" result="shape" />
    </filter>
    <filter id="filter2_d_111_57" x="65.7068" y="77.4789" width="27.8347" height="27.5032" filterUnits="userSpaceOnUse"
      color-interpolation-filters="sRGB">
      <feFlood flood-opacity="0" result="BackgroundImageFix" />
      <feColorMatrix in="SourceAlpha" type="matrix" values="0 0 0 0 0 0 0 0 0 0 0 0 0 0 0 0 0 0 127 0"
        result="hardAlpha" />
      <feOffset />
      <feGaussianBlur stdDeviation="4" />
      <feComposite in2="hardAlpha" operator="out" />
      <feColorMatrix type="matrix" values="0 0 0 0 1 0 0 0 0 0.80475 0 0 0 0 0.1125 0 0 0 1 0" />
      <feBlend mode="normal" in2="BackgroundImageFix" result="effect1_dropShadow_111_57" />
      <feBlend mode="normal" in="SourceGraphic" in2="effect1_dropShadow_111_57" result="shape" />
    </filter>
    <filter id="filter3_d_111_57" x="55.9819" y="57.0661" width="27.5325" height="27.8318" filterUnits="userSpaceOnUse"
      color-interpolation-filters="sRGB">
      <feFlood flood-opacity="0" result="BackgroundImageFix" />
      <feColorMatrix in="SourceAlpha" type="matrix" values="0 0 0 0 0 0 0 0 0 0 0 0 0 0 0 0 0 0 127 0"
        result="hardAlpha" />
      <feOffset />
      <feGaussianBlur stdDeviation="4" />
      <feComposite in2="hardAlpha" operator="out" />
      <feColorMatrix type="matrix" values="0 0 0 0 1 0 0 0 0 0.80475 0 0 0 0 0.1125 0 0 0 1 0" />
      <feBlend mode="normal" in2="BackgroundImageFix" result="effect1_dropShadow_111_57" />
      <feBlend mode="normal" in="SourceGraphic" in2="effect1_dropShadow_111_57" result="shape" />
    </filter>
    <filter id="filter4_d_111_57" x="23.7498" y="61.6972" width="27.5325" height="27.8318" filterUnits="userSpaceOnUse"
      color-interpolation-filters="sRGB">
      <feFlood flood-opacity="0" result="BackgroundImageFix" />
      <feColorMatrix in="SourceAlpha" type="matrix" values="0 0 0 0 0 0 0 0 0 0 0 0 0 0 0 0 0 0 127 0"
        result="hardAlpha" />
      <feOffset />
      <feGaussianBlur stdDeviation="4" />
      <feComposite in2="hardAlpha" operator="out" />
      <feColorMatrix type="matrix" values="0 0 0 0 1 0 0 0 0 0.80475 0 0 0 0 0.1125 0 0 0 1 0" />
      <feBlend mode="normal" in2="BackgroundImageFix" result="effect1_dropShadow_111_57" />
      <feBlend mode="normal" in="SourceGraphic" in2="effect1_dropShadow_111_57" result="shape" />
    </filter>
    <filter id="filter5_d_111_57" x="53.9705" y="32.3232" width="27.5325" height="27.8318" filterUnits="userSpaceOnUse"
      color-interpolation-filters="sRGB">
      <feFlood flood-opacity="0" result="BackgroundImageFix" />
      <feColorMatrix in="SourceAlpha" type="matrix" values="0 0 0 0 0 0 0 0 0 0 0 0 0 0 0 0 0 0 127 0"
        result="hardAlpha" />
      <feOffset />
      <feGaussianBlur stdDeviation="4" />
      <feComposite in2="hardAlpha" operator="out" />
      <feColorMatrix type="matrix" values="0 0 0 0 1 0 0 0 0 0.80475 0 0 0 0 0.1125 0 0 0 1 0" />
      <feBlend mode="normal" in2="BackgroundImageFix" result="effect1_dropShadow_111_57" />
      <feBlend mode="normal" in="SourceGraphic" in2="effect1_dropShadow_111_57" result="shape" />
    </filter>
    <filter id="filter6_d_111_57" x="20.2058" y="30.6334" width="27.5325" height="27.8318" filterUnits="userSpaceOnUse"
      color-interpolation-filters="sRGB">
      <feFlood flood-opacity="0" result="BackgroundImageFix" />
      <feColorMatrix in="SourceAlpha" type="matrix" values="0 0 0 0 0 0 0 0 0 0 0 0 0 0 0 0 0 0 127 0"
        result="hardAlpha" />
      <feOffset />
      <feGaussianBlur stdDeviation="4" />
      <feComposite in2="hardAlpha" operator="out" />
      <feColorMatrix type="matrix" values="0 0 0 0 1 0 0 0 0 0.80475 0 0 0 0 0.1125 0 0 0 1 0" />
      <feBlend mode="normal" in2="BackgroundImageFix" result="effect1_dropShadow_111_57" />
      <feBlend mode="normal" in="SourceGraphic" in2="effect1_dropShadow_111_57" result="shape" />
    </filter>
  </defs>
</svg>