<svg width="111" height="102" viewBox="0 0 111 102" fill="none" xmlns="http://www.w3.org/2000/svg">
  <g filter="url(#filter0_d_111_155)">
    <path
      d="M9.53077 36.9568C8.36621 37.5946 8.13502 39.1693 9.06709 40.1149L10.3679 41.4346C10.6466 41.7174 10.8349 42.0768 10.9087 42.4669L11.253 44.2877C11.4997 45.5924 12.9259 46.2988 14.1133 45.7046L15.7704 44.8753C16.1255 44.6976 16.5254 44.6296 16.9193 44.68L18.7573 44.9151C20.0744 45.0836 21.187 43.9456 20.9887 42.6327L20.7121 40.8004C20.6528 40.4078 20.7117 40.0064 20.8814 39.6474L21.673 37.972C22.2403 36.7715 21.5017 35.3617 20.1919 35.1445L18.3638 34.8414C17.972 34.7764 17.6085 34.5964 17.3195 34.3241L15.9707 33.0534C15.0042 32.143 13.4352 32.4097 12.8239 33.5884L11.9707 35.2333C11.7879 35.5858 11.5043 35.8759 11.156 36.0667L9.53077 36.9568Z"
      fill="#FFCD1D" />
  </g>
  <g filter="url(#filter1_d_111_155)">
    <path
      d="M10.5308 14.9568C9.36621 15.5946 9.13502 17.1693 10.0671 18.1149L11.3679 19.4346C11.6466 19.7174 11.8349 20.0768 11.9087 20.4669L12.253 22.2877C12.4997 23.5924 13.9259 24.2988 15.1133 23.7046L16.7704 22.8753C17.1255 22.6976 17.5254 22.6296 17.9193 22.68L19.7573 22.9151C21.0744 23.0836 22.187 21.9456 21.9887 20.6327L21.7121 18.8004C21.6528 18.4078 21.7117 18.0064 21.8814 17.6474L22.673 15.972C23.2403 14.7715 22.5017 13.3617 21.1919 13.1445L19.3638 12.8414C18.972 12.7764 18.6085 12.5964 18.3195 12.3241L16.9707 11.0534C16.0042 10.143 14.4352 10.4097 13.8239 11.5884L12.9707 13.2333C12.7879 13.5858 12.5043 13.8759 12.156 14.0667L10.5308 14.9568Z"
      fill="#FFCD1D" />
  </g>
  <g filter="url(#filter2_d_111_155)">
    <path
      d="M29.5308 44.9568C28.3662 45.5946 28.135 47.1693 29.0671 48.1149L30.3679 49.4346C30.6466 49.7174 30.8349 50.0768 30.9087 50.4669L31.253 52.2877C31.4997 53.5924 32.9259 54.2988 34.1133 53.7046L35.7704 52.8753C36.1255 52.6976 36.5254 52.6296 36.9193 52.68L38.7573 52.9151C40.0744 53.0836 41.187 51.9456 40.9887 50.6327L40.7121 48.8004C40.6528 48.4078 40.7117 48.0064 40.8814 47.6474L41.673 45.972C42.2403 44.7715 41.5017 43.3617 40.1919 43.1445L38.3638 42.8414C37.972 42.7764 37.6085 42.5964 37.3195 42.3241L35.9707 41.0534C35.0042 40.143 33.4352 40.4097 32.8239 41.5884L31.9707 43.2333C31.7879 43.5858 31.5043 43.8759 31.156 44.0667L29.5308 44.9568Z"
      fill="#FFCD1D" />
  </g>
  <g filter="url(#filter3_d_111_155)">
    <path
      d="M72.5308 42.9568C71.3662 43.5946 71.135 45.1693 72.0671 46.1149L73.3679 47.4346C73.6466 47.7174 73.8349 48.0768 73.9087 48.4669L74.253 50.2877C74.4997 51.5924 75.9259 52.2988 77.1133 51.7046L78.7704 50.8753C79.1255 50.6976 79.5254 50.6296 79.9193 50.68L81.7573 50.9151C83.0744 51.0836 84.187 49.9456 83.9887 48.6327L83.7121 46.8004C83.6528 46.4078 83.7117 46.0064 83.8814 45.6474L84.673 43.972C85.2403 42.7715 84.5017 41.3617 83.1919 41.1445L81.3638 40.8414C80.972 40.7764 80.6085 40.5964 80.3195 40.3241L78.9707 39.0534C78.0042 38.143 76.4352 38.4097 75.8239 39.5884L74.9707 41.2333C74.7879 41.5858 74.5043 41.8759 74.156 42.0667L72.5308 42.9568Z"
      fill="#FFCD1D" />
  </g>
  <g filter="url(#filter4_d_111_155)">
    <path
      d="M90.5308 37.9568C89.3662 38.5946 89.135 40.1693 90.0671 41.1149L91.3679 42.4346C91.6466 42.7174 91.8349 43.0768 91.9087 43.4669L92.253 45.2877C92.4997 46.5924 93.9259 47.2988 95.1133 46.7046L96.7704 45.8753C97.1255 45.6976 97.5254 45.6296 97.9193 45.68L99.7573 45.9151C101.074 46.0836 102.187 44.9456 101.989 43.6327L101.712 41.8004C101.653 41.4078 101.712 41.0064 101.881 40.6474L102.673 38.972C103.24 37.7715 102.502 36.3617 101.192 36.1445L99.3638 35.8414C98.972 35.7764 98.6085 35.5964 98.3195 35.3241L96.9707 34.0534C96.0042 33.143 94.4352 33.4097 93.8239 34.5884L92.9707 36.2333C92.7879 36.5858 92.5043 36.8759 92.156 37.0667L90.5308 37.9568Z"
      fill="#FFCD1D" />
  </g>
  <g filter="url(#filter5_d_111_155)">
    <path
      d="M81.5308 12.9568C80.3662 13.5946 80.135 15.1693 81.0671 16.1149L82.3679 17.4346C82.6466 17.7174 82.8349 18.0768 82.9087 18.4669L83.253 20.2877C83.4997 21.5924 84.9259 22.2988 86.1133 21.7046L87.7704 20.8753C88.1255 20.6976 88.5254 20.6296 88.9193 20.68L90.7573 20.9151C92.0744 21.0836 93.187 19.9456 92.9887 18.6327L92.7121 16.8004C92.6528 16.4078 92.7117 16.0064 92.8814 15.6474L93.673 13.972C94.2403 12.7715 93.5017 11.3617 92.1919 11.1445L90.3638 10.8414C89.972 10.7764 89.6085 10.5964 89.3195 10.3241L87.9707 9.05344C87.0042 8.14298 85.4352 8.40971 84.8239 9.58838L83.9707 11.2333C83.7879 11.5858 83.5043 11.8759 83.156 12.0667L81.5308 12.9568Z"
      fill="#FFCD1D" />
  </g>
  <g filter="url(#filter6_d_111_155)">
    <path
      d="M61.5308 25.9568C60.3662 26.5946 60.135 28.1693 61.0671 29.1149L62.3679 30.4346C62.6466 30.7174 62.8349 31.0768 62.9087 31.4669L63.253 33.2877C63.4997 34.5924 64.9259 35.2988 66.1133 34.7046L67.7704 33.8753C68.1255 33.6976 68.5254 33.6296 68.9193 33.68L70.7573 33.9151C72.0744 34.0836 73.187 32.9456 72.9887 31.6327L72.7121 29.8004C72.6528 29.4078 72.7117 29.0064 72.8814 28.6474L73.673 26.972C74.2403 25.7715 73.5017 24.3617 72.1919 24.1445L70.3638 23.8414C69.972 23.7764 69.6085 23.5964 69.3195 23.3241L67.9707 22.0534C67.0042 21.143 65.4352 21.4097 64.8239 22.5884L63.9707 24.2333C63.7879 24.5858 63.5043 24.8759 63.156 25.0667L61.5308 25.9568Z"
      fill="#FFCD1D" />
  </g>
  <g filter="url(#filter7_d_111_155)">
    <path
      d="M42.5078 72.679C41.5701 73.6191 41.7919 75.1951 42.9526 75.8398L44.5725 76.7396C44.9196 76.9324 45.2015 77.2242 45.3822 77.5778L46.2255 79.2278C46.8298 80.4101 48.3973 80.6862 49.3691 79.7815L50.7255 78.5189C51.0161 78.2484 51.3807 78.0705 51.7728 78.0079L53.6027 77.7157C54.9138 77.5063 55.6608 76.1009 55.1007 74.8971L54.319 73.2169C54.1516 72.8569 54.095 72.4552 54.1566 72.0629L54.4442 70.2323C54.6503 68.9207 53.5445 67.776 52.2265 67.9366L50.387 68.1608C49.9929 68.2089 49.5933 68.1385 49.2393 67.9587L47.5872 67.1195C46.4034 66.5182 44.973 67.2161 44.7185 68.5193L44.3633 70.338C44.2872 70.7277 44.0968 71.0859 43.8164 71.3671L42.5078 72.679Z"
      fill="#FFCD1D" />
  </g>
  <g filter="url(#filter8_d_111_155)">
    <path
      d="M53.0293 85.6791C52.0916 86.6192 52.3133 88.1952 53.4741 88.8399L55.094 89.7398C55.4411 89.9326 55.723 90.2243 55.9037 90.5779L56.747 92.2279C57.3513 93.4102 58.9187 93.6863 59.8906 92.7816L61.2469 91.5191C61.5376 91.2485 61.9022 91.0706 62.2943 91.008L64.1242 90.7158C65.4353 90.5064 66.1823 89.101 65.6222 87.8972L64.8405 86.2171C64.673 85.857 64.6165 85.4553 64.6781 85.063L64.9657 83.2325C65.1718 81.9208 64.066 80.7761 62.748 80.9368L60.9085 81.161C60.5144 81.209 60.1148 81.1386 59.7608 80.9588L58.1087 80.1196C56.9249 79.5183 55.4945 80.2163 55.24 81.5194L54.8848 83.3381C54.8087 83.7278 54.6183 84.0861 54.3379 84.3672L53.0293 85.6791Z"
      fill="#FFCD1D" />
  </g>
  <g filter="url(#filter9_d_111_155)">
    <path
      d="M65.0293 71.6791C64.0916 72.6192 64.3133 74.1952 65.4741 74.8399L67.094 75.7398C67.4411 75.9326 67.723 76.2243 67.9037 76.5779L68.747 78.2279C69.3513 79.4102 70.9187 79.6863 71.8906 78.7816L73.2469 77.5191C73.5376 77.2485 73.9022 77.0706 74.2943 77.008L76.1242 76.7158C77.4353 76.5064 78.1823 75.101 77.6222 73.8972L76.8405 72.2171C76.673 71.857 76.6165 71.4553 76.6781 71.063L76.9657 69.2325C77.1718 67.9208 76.066 66.7761 74.748 66.9368L72.9085 67.161C72.5144 67.209 72.1148 67.1386 71.7608 66.9588L70.1087 66.1196C68.9249 65.5183 67.4945 66.2163 67.24 67.5194L66.8848 69.3381C66.8087 69.7278 66.6183 70.0861 66.3379 70.3672L65.0293 71.6791Z"
      fill="#FFCD1D" />
  </g>
  <line x1="21.1682" y1="41.5291" x2="35.1682" y2="46.5291" stroke="#FFCD1D" stroke-opacity="0.44" />
  <line x1="16.5" y1="17" x2="16.5" y2="38" stroke="#FFCD1D" stroke-opacity="0.44" />
  <line x1="77.4779" y1="47.147" x2="69.4779" y2="73.147" stroke="#FFCD1D" stroke-opacity="0.44" />
  <line x1="84.2725" y1="15.4192" x2="64.2725" y2="28.4192" stroke="#FFCD1D" stroke-opacity="0.44" />
  <line x1="95.5296" y1="40.1694" x2="86.5296" y2="15.1694" stroke="#FFCD1D" stroke-opacity="0.44" />
  <line x1="77.8662" y1="44.5182" x2="95.8662" y2="39.5182" stroke="#FFCD1D" stroke-opacity="0.44" />
  <line x1="78.5713" y1="48.2572" x2="66.5713" y2="28.2572" stroke="#FFCD1D" stroke-opacity="0.44" />
  <line x1="48.5729" y1="73.26" x2="34.5729" y2="50.26" stroke="#FFCD1D" stroke-opacity="0.44" />
  <line x1="57.5848" y1="87.2785" x2="48.4582" y2="73.6734" stroke="#FFCD1D" stroke-opacity="0.44" />
  <line x1="71.4263" y1="69.3004" x2="59.3997" y2="85.3004" stroke="#FFCD1D" stroke-opacity="0.44" />
  <defs>
    <filter id="filter0_d_111_155" x="0.491211" y="24.5089" width="29.375" height="29.4086" filterUnits="userSpaceOnUse"
      color-interpolation-filters="sRGB">
      <feFlood flood-opacity="0" result="BackgroundImageFix" />
      <feColorMatrix in="SourceAlpha" type="matrix" values="0 0 0 0 0 0 0 0 0 0 0 0 0 0 0 0 0 0 127 0"
        result="hardAlpha" />
      <feOffset />
      <feGaussianBlur stdDeviation="4" />
      <feComposite in2="hardAlpha" operator="out" />
      <feColorMatrix type="matrix" values="0 0 0 0 1 0 0 0 0 0.80475 0 0 0 0 0.1125 0 0 0 1 0" />
      <feBlend mode="normal" in2="BackgroundImageFix" result="effect1_dropShadow_111_155" />
      <feBlend mode="normal" in="SourceGraphic" in2="effect1_dropShadow_111_155" result="shape" />
    </filter>
    <filter id="filter1_d_111_155" x="1.49121" y="2.50888" width="29.375" height="29.4086" filterUnits="userSpaceOnUse"
      color-interpolation-filters="sRGB">
      <feFlood flood-opacity="0" result="BackgroundImageFix" />
      <feColorMatrix in="SourceAlpha" type="matrix" values="0 0 0 0 0 0 0 0 0 0 0 0 0 0 0 0 0 0 127 0"
        result="hardAlpha" />
      <feOffset />
      <feGaussianBlur stdDeviation="4" />
      <feComposite in2="hardAlpha" operator="out" />
      <feColorMatrix type="matrix" values="0 0 0 0 1 0 0 0 0 0.80475 0 0 0 0 0.1125 0 0 0 1 0" />
      <feBlend mode="normal" in2="BackgroundImageFix" result="effect1_dropShadow_111_155" />
      <feBlend mode="normal" in="SourceGraphic" in2="effect1_dropShadow_111_155" result="shape" />
    </filter>
    <filter id="filter2_d_111_155" x="20.4912" y="32.5089" width="29.375" height="29.4086" filterUnits="userSpaceOnUse"
      color-interpolation-filters="sRGB">
      <feFlood flood-opacity="0" result="BackgroundImageFix" />
      <feColorMatrix in="SourceAlpha" type="matrix" values="0 0 0 0 0 0 0 0 0 0 0 0 0 0 0 0 0 0 127 0"
        result="hardAlpha" />
      <feOffset />
      <feGaussianBlur stdDeviation="4" />
      <feComposite in2="hardAlpha" operator="out" />
      <feColorMatrix type="matrix" values="0 0 0 0 1 0 0 0 0 0.80475 0 0 0 0 0.1125 0 0 0 1 0" />
      <feBlend mode="normal" in2="BackgroundImageFix" result="effect1_dropShadow_111_155" />
      <feBlend mode="normal" in="SourceGraphic" in2="effect1_dropShadow_111_155" result="shape" />
    </filter>
    <filter id="filter3_d_111_155" x="63.4912" y="30.5089" width="29.375" height="29.4086" filterUnits="userSpaceOnUse"
      color-interpolation-filters="sRGB">
      <feFlood flood-opacity="0" result="BackgroundImageFix" />
      <feColorMatrix in="SourceAlpha" type="matrix" values="0 0 0 0 0 0 0 0 0 0 0 0 0 0 0 0 0 0 127 0"
        result="hardAlpha" />
      <feOffset />
      <feGaussianBlur stdDeviation="4" />
      <feComposite in2="hardAlpha" operator="out" />
      <feColorMatrix type="matrix" values="0 0 0 0 1 0 0 0 0 0.80475 0 0 0 0 0.1125 0 0 0 1 0" />
      <feBlend mode="normal" in2="BackgroundImageFix" result="effect1_dropShadow_111_155" />
      <feBlend mode="normal" in="SourceGraphic" in2="effect1_dropShadow_111_155" result="shape" />
    </filter>
    <filter id="filter4_d_111_155" x="81.4912" y="25.5089" width="29.375" height="29.4086" filterUnits="userSpaceOnUse"
      color-interpolation-filters="sRGB">
      <feFlood flood-opacity="0" result="BackgroundImageFix" />
      <feColorMatrix in="SourceAlpha" type="matrix" values="0 0 0 0 0 0 0 0 0 0 0 0 0 0 0 0 0 0 127 0"
        result="hardAlpha" />
      <feOffset />
      <feGaussianBlur stdDeviation="4" />
      <feComposite in2="hardAlpha" operator="out" />
      <feColorMatrix type="matrix" values="0 0 0 0 1 0 0 0 0 0.80475 0 0 0 0 0.1125 0 0 0 1 0" />
      <feBlend mode="normal" in2="BackgroundImageFix" result="effect1_dropShadow_111_155" />
      <feBlend mode="normal" in="SourceGraphic" in2="effect1_dropShadow_111_155" result="shape" />
    </filter>
    <filter id="filter5_d_111_155" x="72.4912" y="0.508881" width="29.375" height="29.4086" filterUnits="userSpaceOnUse"
      color-interpolation-filters="sRGB">
      <feFlood flood-opacity="0" result="BackgroundImageFix" />
      <feColorMatrix in="SourceAlpha" type="matrix" values="0 0 0 0 0 0 0 0 0 0 0 0 0 0 0 0 0 0 127 0"
        result="hardAlpha" />
      <feOffset />
      <feGaussianBlur stdDeviation="4" />
      <feComposite in2="hardAlpha" operator="out" />
      <feColorMatrix type="matrix" values="0 0 0 0 1 0 0 0 0 0.80475 0 0 0 0 0.1125 0 0 0 1 0" />
      <feBlend mode="normal" in2="BackgroundImageFix" result="effect1_dropShadow_111_155" />
      <feBlend mode="normal" in="SourceGraphic" in2="effect1_dropShadow_111_155" result="shape" />
    </filter>
    <filter id="filter6_d_111_155" x="52.4912" y="13.5089" width="29.375" height="29.4086" filterUnits="userSpaceOnUse"
      color-interpolation-filters="sRGB">
      <feFlood flood-opacity="0" result="BackgroundImageFix" />
      <feColorMatrix in="SourceAlpha" type="matrix" values="0 0 0 0 0 0 0 0 0 0 0 0 0 0 0 0 0 0 127 0"
        result="hardAlpha" />
      <feOffset />
      <feGaussianBlur stdDeviation="4" />
      <feComposite in2="hardAlpha" operator="out" />
      <feColorMatrix type="matrix" values="0 0 0 0 1 0 0 0 0 0.80475 0 0 0 0 0.1125 0 0 0 1 0" />
      <feBlend mode="normal" in2="BackgroundImageFix" result="effect1_dropShadow_111_155" />
      <feBlend mode="normal" in="SourceGraphic" in2="effect1_dropShadow_111_155" result="shape" />
    </filter>
    <filter id="filter7_d_111_155" x="33.9236" y="58.9013" width="29.3652" height="29.4167" filterUnits="userSpaceOnUse"
      color-interpolation-filters="sRGB">
      <feFlood flood-opacity="0" result="BackgroundImageFix" />
      <feColorMatrix in="SourceAlpha" type="matrix" values="0 0 0 0 0 0 0 0 0 0 0 0 0 0 0 0 0 0 127 0"
        result="hardAlpha" />
      <feOffset />
      <feGaussianBlur stdDeviation="4" />
      <feComposite in2="hardAlpha" operator="out" />
      <feColorMatrix type="matrix" values="0 0 0 0 1 0 0 0 0 0.80475 0 0 0 0 0.1125 0 0 0 1 0" />
      <feBlend mode="normal" in2="BackgroundImageFix" result="effect1_dropShadow_111_155" />
      <feBlend mode="normal" in="SourceGraphic" in2="effect1_dropShadow_111_155" result="shape" />
    </filter>
    <filter id="filter8_d_111_155" x="44.4451" y="71.9014" width="29.3652" height="29.4167" filterUnits="userSpaceOnUse"
      color-interpolation-filters="sRGB">
      <feFlood flood-opacity="0" result="BackgroundImageFix" />
      <feColorMatrix in="SourceAlpha" type="matrix" values="0 0 0 0 0 0 0 0 0 0 0 0 0 0 0 0 0 0 127 0"
        result="hardAlpha" />
      <feOffset />
      <feGaussianBlur stdDeviation="4" />
      <feComposite in2="hardAlpha" operator="out" />
      <feColorMatrix type="matrix" values="0 0 0 0 1 0 0 0 0 0.80475 0 0 0 0 0.1125 0 0 0 1 0" />
      <feBlend mode="normal" in2="BackgroundImageFix" result="effect1_dropShadow_111_155" />
      <feBlend mode="normal" in="SourceGraphic" in2="effect1_dropShadow_111_155" result="shape" />
    </filter>
    <filter id="filter9_d_111_155" x="56.4451" y="57.9014" width="29.3652" height="29.4167" filterUnits="userSpaceOnUse"
      color-interpolation-filters="sRGB">
      <feFlood flood-opacity="0" result="BackgroundImageFix" />
      <feColorMatrix in="SourceAlpha" type="matrix" values="0 0 0 0 0 0 0 0 0 0 0 0 0 0 0 0 0 0 127 0"
        result="hardAlpha" />
      <feOffset />
      <feGaussianBlur stdDeviation="4" />
      <feComposite in2="hardAlpha" operator="out" />
      <feColorMatrix type="matrix" values="0 0 0 0 1 0 0 0 0 0.80475 0 0 0 0 0.1125 0 0 0 1 0" />
      <feBlend mode="normal" in2="BackgroundImageFix" result="effect1_dropShadow_111_155" />
      <feBlend mode="normal" in="SourceGraphic" in2="effect1_dropShadow_111_155" result="shape" />
    </filter>
  </defs>
</svg>