<svg width="103" height="100" viewBox="0 0 103 100" fill="none" xmlns="http://www.w3.org/2000/svg">
  <g filter="url(#filter0_d_111_72)">
    <path
      d="M10.2567 32.7094C10.1991 34.0359 11.4263 35.0493 12.718 34.7418L14.3102 34.3627C14.6965 34.2708 15.1014 34.2959 15.4734 34.4349L17.0066 35.0077C18.2504 35.4724 19.5934 34.6184 19.7001 33.2949L19.8316 31.6635C19.8635 31.2677 20.0125 30.8903 20.2597 30.5795L21.2783 29.2984C22.1046 28.259 21.7074 26.7179 20.4816 26.2074L18.9707 25.5782C18.6041 25.4255 18.2913 25.1672 18.0721 24.8361L17.1684 23.4715C16.4353 22.3645 14.8468 22.266 13.9825 23.274L12.9172 24.5165C12.6587 24.818 12.3164 25.0357 11.9338 25.1419L10.3567 25.5796C9.07726 25.9347 8.49271 27.4151 9.18431 28.5485L10.0368 29.9457C10.2437 30.2846 10.3449 30.6775 10.3277 31.0742L10.2567 32.7094Z"
      fill="#FFCD1D" />
  </g>
  <g filter="url(#filter1_d_111_72)">
    <path
      d="M50.2286 37.1129C51.062 38.1466 52.6527 38.0961 53.4189 37.0118L54.3635 35.675C54.5926 35.3508 54.9131 35.102 55.2841 34.9605L56.8134 34.3772C58.054 33.9041 58.4976 32.3756 57.7031 31.3118L56.7237 30.0004C56.4861 29.6823 56.3485 29.3006 56.3286 28.904L56.2464 27.2693C56.1798 25.9432 54.8632 25.049 53.6059 25.4759L52.0561 26.0022C51.6801 26.1298 51.2746 26.1427 50.8913 26.0391L49.3112 25.6121C48.0295 25.2657 46.7721 26.2415 46.7896 27.5692L46.8112 29.2058C46.8164 29.6028 46.7033 29.9924 46.4864 30.325L45.592 31.6957C44.8665 32.8077 45.406 34.3051 46.6741 34.6987L48.2372 35.1839C48.6165 35.3016 48.9521 35.5296 49.2013 35.8387L50.2286 37.1129Z"
      fill="#FFCD1D" />
  </g>
  <g filter="url(#filter2_d_111_72)">
    <path
      d="M20.6815 56.7094C20.6239 58.0359 21.8511 59.0493 23.1428 58.7418L24.735 58.3627C25.1213 58.2708 25.5262 58.2959 25.8982 58.4349L27.4314 59.0077C28.6752 59.4724 30.0182 58.6184 30.1249 57.2949L30.2564 55.6635C30.2883 55.2677 30.4373 54.8903 30.6845 54.5795L31.7031 53.2984C32.5294 52.259 32.1322 50.7179 30.9064 50.2074L29.3955 49.5782C29.0289 49.4255 28.7161 49.1672 28.4969 48.8361L27.5932 47.4715C26.8601 46.3645 25.2716 46.266 24.4073 47.274L23.342 48.5165C23.0835 48.818 22.7412 49.0357 22.3586 49.1419L20.7815 49.5796C19.5021 49.9347 18.9175 51.4151 19.6091 52.5485L20.4616 53.9457C20.6685 54.2846 20.7697 54.6775 20.7525 55.0742L20.6815 56.7094Z"
      fill="#FFCD1D" />
  </g>
  <g filter="url(#filter3_d_111_72)">
    <path
      d="M40.9608 75.2654C40.9032 76.5919 42.1304 77.6053 43.4221 77.2978L45.0143 76.9187C45.4006 76.8268 45.8055 76.8519 46.1775 76.9909L47.7107 77.5637C48.9545 78.0284 50.2975 77.1744 50.4042 75.8509L50.5357 74.2195C50.5676 73.8237 50.7166 73.4463 50.9638 73.1355L51.9824 71.8544C52.8087 70.815 52.4115 69.2739 51.1857 68.7634L49.6748 68.1342C49.3082 67.9815 48.9954 67.7232 48.7762 67.3921L47.8725 66.0275C47.1394 64.9205 45.5509 64.822 44.6866 65.83L43.6213 67.0725C43.3628 67.374 43.0205 67.5917 42.6379 67.6979L41.0608 68.1356C39.7814 68.4907 39.1968 69.9711 39.8884 71.1045L40.7409 72.5017C40.9478 72.8406 41.049 73.2335 41.0318 73.6302L40.9608 75.2654Z"
      fill="#FFCD1D" />
  </g>
  <g filter="url(#filter4_d_111_72)">
    <path
      d="M86.8418 35.9627C87.6169 37.0408 89.208 37.0782 90.0329 36.0378L91.0497 34.7552C91.2964 34.4441 91.6301 34.2134 92.0084 34.0926L93.5675 33.5945C94.8323 33.1905 95.3596 31.6889 94.6249 30.5828L93.7194 29.2194C93.4997 28.8887 93.3834 28.5 93.3854 28.1029L93.3935 26.4662C93.4002 25.1384 92.1349 24.1729 90.856 24.5298L89.2795 24.9698C88.897 25.0765 88.4915 25.067 88.1144 24.9424L86.5603 24.4288C85.2996 24.0122 83.9904 24.9172 83.9346 26.2438L83.8658 27.8791C83.8491 28.2758 83.7147 28.6586 83.4798 28.9787L82.5111 30.298C81.7253 31.3683 82.1814 32.8931 83.4259 33.3561L84.9599 33.9269C85.332 34.0653 85.6545 34.3114 85.8863 34.6338L86.8418 35.9627Z"
      fill="#FFCD1D" />
  </g>
  <line x1="24.9685" y1="51.2044" x2="14.9492" y2="28.8362" stroke="#FFCD1D" stroke-opacity="0.44" />
  <line x1="51.3524" y1="33.4947" x2="10.3523" y2="27.4947" stroke="#FFCD1D" stroke-opacity="0.44" />
  <line x1="85.4688" y1="29.4981" x2="51.4688" y2="32.4981" stroke="#FFCD1D" stroke-opacity="0.44" />
  <line x1="45.3111" y1="71.9066" x2="26.0987" y2="55.3791" stroke="#FFCD1D" stroke-opacity="0.44" />
  <line x1="88.7612" y1="31.3699" x2="48.7613" y2="67.7541" stroke="#FFCD1D" stroke-opacity="0.44" />
  <defs>
    <filter id="filter0_d_111_72" x="0.890381" y="14.5757" width="28.823" height="28.5599" filterUnits="userSpaceOnUse"
      color-interpolation-filters="sRGB">
      <feFlood flood-opacity="0" result="BackgroundImageFix" />
      <feColorMatrix in="SourceAlpha" type="matrix" values="0 0 0 0 0 0 0 0 0 0 0 0 0 0 0 0 0 0 127 0"
        result="hardAlpha" />
      <feOffset />
      <feGaussianBlur stdDeviation="4" />
      <feComposite in2="hardAlpha" operator="out" />
      <feColorMatrix type="matrix" values="0 0 0 0 1 0 0 0 0 0.80475 0 0 0 0 0.1125 0 0 0 1 0" />
      <feBlend mode="normal" in2="BackgroundImageFix" result="effect1_dropShadow_111_72" />
      <feBlend mode="normal" in="SourceGraphic" in2="effect1_dropShadow_111_72" result="shape" />
    </filter>
    <filter id="filter1_d_111_72" x="37.2659" y="17.3684" width="28.8357" height="28.4892" filterUnits="userSpaceOnUse"
      color-interpolation-filters="sRGB">
      <feFlood flood-opacity="0" result="BackgroundImageFix" />
      <feColorMatrix in="SourceAlpha" type="matrix" values="0 0 0 0 0 0 0 0 0 0 0 0 0 0 0 0 0 0 127 0"
        result="hardAlpha" />
      <feOffset />
      <feGaussianBlur stdDeviation="4" />
      <feComposite in2="hardAlpha" operator="out" />
      <feColorMatrix type="matrix" values="0 0 0 0 1 0 0 0 0 0.80475 0 0 0 0 0.1125 0 0 0 1 0" />
      <feBlend mode="normal" in2="BackgroundImageFix" result="effect1_dropShadow_111_72" />
      <feBlend mode="normal" in="SourceGraphic" in2="effect1_dropShadow_111_72" result="shape" />
    </filter>
    <filter id="filter2_d_111_72" x="11.3152" y="38.5757" width="28.823" height="28.5599" filterUnits="userSpaceOnUse"
      color-interpolation-filters="sRGB">
      <feFlood flood-opacity="0" result="BackgroundImageFix" />
      <feColorMatrix in="SourceAlpha" type="matrix" values="0 0 0 0 0 0 0 0 0 0 0 0 0 0 0 0 0 0 127 0"
        result="hardAlpha" />
      <feOffset />
      <feGaussianBlur stdDeviation="4" />
      <feComposite in2="hardAlpha" operator="out" />
      <feColorMatrix type="matrix" values="0 0 0 0 1 0 0 0 0 0.80475 0 0 0 0 0.1125 0 0 0 1 0" />
      <feBlend mode="normal" in2="BackgroundImageFix" result="effect1_dropShadow_111_72" />
      <feBlend mode="normal" in="SourceGraphic" in2="effect1_dropShadow_111_72" result="shape" />
    </filter>
    <filter id="filter3_d_111_72" x="31.5945" y="57.1317" width="28.823" height="28.5599" filterUnits="userSpaceOnUse"
      color-interpolation-filters="sRGB">
      <feFlood flood-opacity="0" result="BackgroundImageFix" />
      <feColorMatrix in="SourceAlpha" type="matrix" values="0 0 0 0 0 0 0 0 0 0 0 0 0 0 0 0 0 0 127 0"
        result="hardAlpha" />
      <feOffset />
      <feGaussianBlur stdDeviation="4" />
      <feComposite in2="hardAlpha" operator="out" />
      <feColorMatrix type="matrix" values="0 0 0 0 1 0 0 0 0 0.80475 0 0 0 0 0.1125 0 0 0 1 0" />
      <feBlend mode="normal" in2="BackgroundImageFix" result="effect1_dropShadow_111_72" />
      <feBlend mode="normal" in="SourceGraphic" in2="effect1_dropShadow_111_72" result="shape" />
    </filter>
    <filter id="filter4_d_111_72" x="74.1226" y="16.3265" width="28.8374" height="28.4688" filterUnits="userSpaceOnUse"
      color-interpolation-filters="sRGB">
      <feFlood flood-opacity="0" result="BackgroundImageFix" />
      <feColorMatrix in="SourceAlpha" type="matrix" values="0 0 0 0 0 0 0 0 0 0 0 0 0 0 0 0 0 0 127 0"
        result="hardAlpha" />
      <feOffset />
      <feGaussianBlur stdDeviation="4" />
      <feComposite in2="hardAlpha" operator="out" />
      <feColorMatrix type="matrix" values="0 0 0 0 1 0 0 0 0 0.80475 0 0 0 0 0.1125 0 0 0 1 0" />
      <feBlend mode="normal" in2="BackgroundImageFix" result="effect1_dropShadow_111_72" />
      <feBlend mode="normal" in="SourceGraphic" in2="effect1_dropShadow_111_72" result="shape" />
    </filter>
  </defs>
</svg>