<svg width="103" height="105" viewBox="0 0 103 105" fill="none" xmlns="http://www.w3.org/2000/svg">
  <g filter="url(#filter0_d_111_119)">
    <path
      d="M10.2567 86.2906C10.1991 84.9641 11.4263 83.9507 12.718 84.2582L14.3102 84.6373C14.6965 84.7292 15.1014 84.7041 15.4734 84.5652L17.0066 83.9923C18.2504 83.5276 19.5934 84.3816 19.7001 85.7051L19.8316 87.3365C19.8635 87.7323 20.0125 88.1097 20.2597 88.4205L21.2783 89.7017C22.1046 90.741 21.7074 92.2822 20.4816 92.7926L18.9707 93.4218C18.6041 93.5745 18.2913 93.8328 18.0721 94.1639L17.1684 95.5285C16.4353 96.6356 14.8468 96.7341 13.9825 95.7261L12.9172 94.4835C12.6587 94.1821 12.3164 93.9644 11.9338 93.8582L10.3567 93.4204C9.07726 93.0653 8.49271 91.5849 9.18431 90.4515L10.0368 89.0543C10.2437 88.7154 10.3449 88.3225 10.3277 87.9258L10.2567 86.2906Z"
      fill="#FFCD1D" />
  </g>
  <g filter="url(#filter1_d_111_119)">
    <path
      d="M50.2286 81.8871C51.062 80.8535 52.6527 80.9039 53.4189 81.9883L54.3635 83.325C54.5926 83.6493 54.9131 83.898 55.2841 84.0395L56.8134 84.6228C58.054 85.0959 58.4976 86.6244 57.7031 87.6882L56.7237 88.9996C56.4861 89.3178 56.3485 89.6994 56.3286 90.096L56.2464 91.7307C56.1798 93.0568 54.8632 93.951 53.6059 93.5241L52.0561 92.9979C51.6801 92.8702 51.2746 92.8573 50.8913 92.9609L49.3112 93.3879C48.0295 93.7343 46.7721 92.7585 46.7896 91.4309L46.8112 89.7943C46.8164 89.3972 46.7033 89.0076 46.4864 88.675L45.592 87.3043C44.8665 86.1923 45.406 84.695 46.6741 84.3013L48.2372 83.8161C48.6165 83.6984 48.9521 83.4704 49.2013 83.1613L50.2286 81.8871Z"
      fill="#FFCD1D" />
  </g>
  <g filter="url(#filter2_d_111_119)">
    <path
      d="M20.6815 62.2906C20.6239 60.9641 21.8511 59.9507 23.1428 60.2582L24.735 60.6373C25.1213 60.7292 25.5262 60.7041 25.8982 60.5652L27.4314 59.9923C28.6752 59.5276 30.0182 60.3816 30.1249 61.7051L30.2564 63.3365C30.2883 63.7323 30.4373 64.1097 30.6845 64.4205L31.7031 65.7017C32.5294 66.741 32.1322 68.2822 30.9064 68.7926L29.3955 69.4218C29.0289 69.5745 28.7161 69.8328 28.4969 70.1639L27.5932 71.5285C26.8601 72.6356 25.2716 72.7341 24.4073 71.7261L23.342 70.4835C23.0835 70.1821 22.7412 69.9644 22.3586 69.8582L20.7815 69.4204C19.5021 69.0653 18.9175 67.5849 19.6091 66.4515L20.4616 65.0543C20.6685 64.7154 20.7697 64.3225 20.7525 63.9258L20.6815 62.2906Z"
      fill="#FFCD1D" />
  </g>
  <g filter="url(#filter3_d_111_119)">
    <path
      d="M66.2569 47.7172C66.1993 46.3907 67.4265 45.3773 68.7182 45.6848L70.3105 46.0639C70.6967 46.1558 71.1017 46.1307 71.4736 45.9918L73.0068 45.4189C74.2506 44.9542 75.5936 45.8082 75.7003 47.1317L75.8319 48.7632C75.8638 49.1589 76.0128 49.5363 76.2599 49.8471L77.2785 51.1283C78.1048 52.1676 77.7076 53.7088 76.4819 54.2192L74.9709 54.8485C74.6044 55.0011 74.2915 55.2594 74.0723 55.5905L73.1686 56.9551C72.4355 58.0622 70.847 58.1607 69.9828 57.1527L68.9174 55.9101C68.659 55.6087 68.3166 55.391 67.934 55.2848L66.3569 54.847C65.0775 54.4919 64.493 53.0116 65.1846 51.8781L66.0371 50.4809C66.2439 50.142 66.3452 49.7491 66.3279 49.3524L66.2569 47.7172Z"
      fill="#FFCD1D" />
  </g>
  <g filter="url(#filter4_d_111_119)">
    <path
      d="M58.2569 28.7172C58.1993 27.3907 59.4265 26.3773 60.7182 26.6848L62.3105 27.0639C62.6967 27.1558 63.1017 27.1307 63.4736 26.9918L65.0068 26.4189C66.2506 25.9542 67.5936 26.8082 67.7003 28.1317L67.8319 29.7632C67.8638 30.1589 68.0128 30.5363 68.2599 30.8471L69.2785 32.1283C70.1048 33.1676 69.7076 34.7088 68.4819 35.2192L66.9709 35.8485C66.6044 36.0011 66.2915 36.2594 66.0723 36.5905L65.1686 37.9551C64.4355 39.0622 62.847 39.1607 61.9828 38.1527L60.9174 36.9101C60.659 36.6087 60.3166 36.391 59.934 36.2848L58.3569 35.847C57.0775 35.4919 56.493 34.0116 57.1846 32.8781L58.0371 31.4809C58.2439 31.142 58.3452 30.7491 58.3279 30.3524L58.2569 28.7172Z"
      fill="#FFCD1D" />
  </g>
  <g filter="url(#filter5_d_111_119)">
    <path
      d="M70.2569 10.7172C70.1993 9.39071 71.4265 8.37733 72.7182 8.68483L74.3105 9.06388C74.6967 9.15584 75.1017 9.13074 75.4736 8.99176L77.0068 8.41892C78.2506 7.95421 79.5936 8.80823 79.7003 10.1317L79.8319 11.7632C79.8638 12.1589 80.0128 12.5363 80.2599 12.8471L81.2785 14.1283C82.1048 15.1676 81.7076 16.7088 80.4819 17.2192L78.9709 17.8485C78.6044 18.0011 78.2915 18.2594 78.0723 18.5905L77.1686 19.9551C76.4355 21.0622 74.847 21.1607 73.9828 20.1527L72.9174 18.9101C72.659 18.6087 72.3166 18.391 71.934 18.2848L70.3569 17.847C69.0775 17.4919 68.493 16.0116 69.1846 14.8781L70.0371 13.4809C70.2439 13.142 70.3452 12.7491 70.3279 12.3524L70.2569 10.7172Z"
      fill="#FFCD1D" />
  </g>
  <g filter="url(#filter6_d_111_119)">
    <path
      d="M83.2569 21.7172C83.1993 20.3907 84.4265 19.3773 85.7182 19.6848L87.3105 20.0639C87.6967 20.1558 88.1017 20.1307 88.4736 19.9918L90.0068 19.4189C91.2506 18.9542 92.5936 19.8082 92.7003 21.1317L92.8319 22.7632C92.8638 23.1589 93.0128 23.5363 93.2599 23.8471L94.2785 25.1283C95.1048 26.1676 94.7076 27.7088 93.4819 28.2192L91.9709 28.8485C91.6044 29.0011 91.2915 29.2594 91.0723 29.5905L90.1686 30.9551C89.4355 32.0622 87.847 32.1607 86.9828 31.1527L85.9174 29.9101C85.659 29.6087 85.3166 29.391 84.934 29.2848L83.3569 28.847C82.0775 28.4919 81.493 27.0116 82.1846 25.8781L83.0371 24.4809C83.2439 24.142 83.3452 23.7491 83.3279 23.3524L83.2569 21.7172Z"
      fill="#FFCD1D" />
  </g>
  <g filter="url(#filter7_d_111_119)">
    <path
      d="M83.2569 54.7172C83.1993 53.3907 84.4265 52.3773 85.7182 52.6848L87.3105 53.0639C87.6967 53.1558 88.1017 53.1307 88.4736 52.9918L90.0068 52.4189C91.2506 51.9542 92.5936 52.8082 92.7003 54.1317L92.8319 55.7632C92.8638 56.1589 93.0128 56.5363 93.2599 56.8471L94.2785 58.1283C95.1048 59.1676 94.7076 60.7088 93.4819 61.2192L91.9709 61.8485C91.6044 62.0011 91.2915 62.2594 91.0723 62.5905L90.1686 63.9551C89.4355 65.0622 87.847 65.1607 86.9828 64.1527L85.9174 62.9101C85.659 62.6087 85.3166 62.391 84.934 62.2848L83.3569 61.847C82.0775 61.4919 81.493 60.0116 82.1846 58.8781L83.0371 57.4809C83.2439 57.142 83.3452 56.7491 83.3279 56.3524L83.2569 54.7172Z"
      fill="#FFCD1D" />
  </g>
  <g filter="url(#filter8_d_111_119)">
    <path
      d="M86.8418 83.0373C87.6169 81.9592 89.208 81.9218 90.0329 82.9622L91.0497 84.2448C91.2964 84.556 91.6301 84.7866 92.0084 84.9075L93.5675 85.4055C94.8323 85.8095 95.3596 87.3112 94.6249 88.4172L93.7194 89.7806C93.4997 90.1114 93.3834 90.5 93.3854 90.8971L93.3935 92.5338C93.4002 93.8616 92.1349 94.8271 90.856 94.4702L89.2795 94.0303C88.897 93.9235 88.4915 93.9331 88.1144 94.0576L86.5603 94.5712C85.2996 94.9878 83.9904 94.0828 83.9346 92.7562L83.8658 91.1209C83.8491 90.7242 83.7147 90.3414 83.4798 90.0213L82.5111 88.702C81.7253 87.6317 82.1814 86.1069 83.4259 85.6439L84.9599 85.0732C85.332 84.9347 85.6545 84.6886 85.8863 84.3662L86.8418 83.0373Z"
      fill="#FFCD1D" />
  </g>
  <line y1="-0.5" x2="24.5096" y2="-0.5" transform="matrix(-0.40879 0.912628 0.912628 0.40879 25.4248 68)"
    stroke="#FFCD1D" stroke-opacity="0.44" />
  <line y1="-0.5" x2="41.4368" y2="-0.5" transform="matrix(-0.989461 0.144799 0.144799 0.989461 51.4248 86)"
    stroke="#FFCD1D" stroke-opacity="0.44" />
  <line y1="-0.5" x2="34.1321" y2="-0.5" transform="matrix(-0.99613 -0.0878938 -0.0878938 0.99613 85.4248 90)"
    stroke="#FFCD1D" stroke-opacity="0.44" />
  <line x1="71.1402" y1="51.48" x2="26.5648" y2="64.48" stroke="#FFCD1D" stroke-opacity="0.44" />
  <line x1="70.5259" y1="51.1581" x2="65.5259" y2="36.1581" stroke="#FFCD1D" stroke-opacity="0.44" />
  <line x1="62.6098" y1="28.6877" x2="74.6098" y2="13.6877" stroke="#FFCD1D" stroke-opacity="0.44" />
  <line x1="85.7002" y1="23.4" x2="73.7002" y2="14.4" stroke="#FFCD1D" stroke-opacity="0.44" />
  <line x1="87.8099" y1="58.4623" x2="70.8099" y2="51.4623" stroke="#FFCD1D" stroke-opacity="0.44" />
  <line x1="87.9254" y1="88.0237" x2="86.5008" y2="58.0237" stroke="#FFCD1D" stroke-opacity="0.44" />
  <defs>
    <filter id="filter0_d_111_119" x="0.890381" y="75.8644" width="28.823" height="28.5599" filterUnits="userSpaceOnUse"
      color-interpolation-filters="sRGB">
      <feFlood flood-opacity="0" result="BackgroundImageFix" />
      <feColorMatrix in="SourceAlpha" type="matrix" values="0 0 0 0 0 0 0 0 0 0 0 0 0 0 0 0 0 0 127 0"
        result="hardAlpha" />
      <feOffset />
      <feGaussianBlur stdDeviation="4" />
      <feComposite in2="hardAlpha" operator="out" />
      <feColorMatrix type="matrix" values="0 0 0 0 1 0 0 0 0 0.80475 0 0 0 0 0.1125 0 0 0 1 0" />
      <feBlend mode="normal" in2="BackgroundImageFix" result="effect1_dropShadow_111_119" />
      <feBlend mode="normal" in="SourceGraphic" in2="effect1_dropShadow_111_119" result="shape" />
    </filter>
    <filter id="filter1_d_111_119" x="37.2659" y="73.1424" width="28.8357" height="28.4892" filterUnits="userSpaceOnUse"
      color-interpolation-filters="sRGB">
      <feFlood flood-opacity="0" result="BackgroundImageFix" />
      <feColorMatrix in="SourceAlpha" type="matrix" values="0 0 0 0 0 0 0 0 0 0 0 0 0 0 0 0 0 0 127 0"
        result="hardAlpha" />
      <feOffset />
      <feGaussianBlur stdDeviation="4" />
      <feComposite in2="hardAlpha" operator="out" />
      <feColorMatrix type="matrix" values="0 0 0 0 1 0 0 0 0 0.80475 0 0 0 0 0.1125 0 0 0 1 0" />
      <feBlend mode="normal" in2="BackgroundImageFix" result="effect1_dropShadow_111_119" />
      <feBlend mode="normal" in="SourceGraphic" in2="effect1_dropShadow_111_119" result="shape" />
    </filter>
    <filter id="filter2_d_111_119" x="11.3152" y="51.8644" width="28.823" height="28.5599" filterUnits="userSpaceOnUse"
      color-interpolation-filters="sRGB">
      <feFlood flood-opacity="0" result="BackgroundImageFix" />
      <feColorMatrix in="SourceAlpha" type="matrix" values="0 0 0 0 0 0 0 0 0 0 0 0 0 0 0 0 0 0 127 0"
        result="hardAlpha" />
      <feOffset />
      <feGaussianBlur stdDeviation="4" />
      <feComposite in2="hardAlpha" operator="out" />
      <feColorMatrix type="matrix" values="0 0 0 0 1 0 0 0 0 0.80475 0 0 0 0 0.1125 0 0 0 1 0" />
      <feBlend mode="normal" in2="BackgroundImageFix" result="effect1_dropShadow_111_119" />
      <feBlend mode="normal" in="SourceGraphic" in2="effect1_dropShadow_111_119" result="shape" />
    </filter>
    <filter id="filter3_d_111_119" x="56.8906" y="37.291" width="28.823" height="28.5599" filterUnits="userSpaceOnUse"
      color-interpolation-filters="sRGB">
      <feFlood flood-opacity="0" result="BackgroundImageFix" />
      <feColorMatrix in="SourceAlpha" type="matrix" values="0 0 0 0 0 0 0 0 0 0 0 0 0 0 0 0 0 0 127 0"
        result="hardAlpha" />
      <feOffset />
      <feGaussianBlur stdDeviation="4" />
      <feComposite in2="hardAlpha" operator="out" />
      <feColorMatrix type="matrix" values="0 0 0 0 1 0 0 0 0 0.80475 0 0 0 0 0.1125 0 0 0 1 0" />
      <feBlend mode="normal" in2="BackgroundImageFix" result="effect1_dropShadow_111_119" />
      <feBlend mode="normal" in="SourceGraphic" in2="effect1_dropShadow_111_119" result="shape" />
    </filter>
    <filter id="filter4_d_111_119" x="48.8906" y="18.291" width="28.823" height="28.5599" filterUnits="userSpaceOnUse"
      color-interpolation-filters="sRGB">
      <feFlood flood-opacity="0" result="BackgroundImageFix" />
      <feColorMatrix in="SourceAlpha" type="matrix" values="0 0 0 0 0 0 0 0 0 0 0 0 0 0 0 0 0 0 127 0"
        result="hardAlpha" />
      <feOffset />
      <feGaussianBlur stdDeviation="4" />
      <feComposite in2="hardAlpha" operator="out" />
      <feColorMatrix type="matrix" values="0 0 0 0 1 0 0 0 0 0.80475 0 0 0 0 0.1125 0 0 0 1 0" />
      <feBlend mode="normal" in2="BackgroundImageFix" result="effect1_dropShadow_111_119" />
      <feBlend mode="normal" in="SourceGraphic" in2="effect1_dropShadow_111_119" result="shape" />
    </filter>
    <filter id="filter5_d_111_119" x="60.8906" y="0.291016" width="28.823" height="28.5599" filterUnits="userSpaceOnUse"
      color-interpolation-filters="sRGB">
      <feFlood flood-opacity="0" result="BackgroundImageFix" />
      <feColorMatrix in="SourceAlpha" type="matrix" values="0 0 0 0 0 0 0 0 0 0 0 0 0 0 0 0 0 0 127 0"
        result="hardAlpha" />
      <feOffset />
      <feGaussianBlur stdDeviation="4" />
      <feComposite in2="hardAlpha" operator="out" />
      <feColorMatrix type="matrix" values="0 0 0 0 1 0 0 0 0 0.80475 0 0 0 0 0.1125 0 0 0 1 0" />
      <feBlend mode="normal" in2="BackgroundImageFix" result="effect1_dropShadow_111_119" />
      <feBlend mode="normal" in="SourceGraphic" in2="effect1_dropShadow_111_119" result="shape" />
    </filter>
    <filter id="filter6_d_111_119" x="73.8906" y="11.291" width="28.823" height="28.5599" filterUnits="userSpaceOnUse"
      color-interpolation-filters="sRGB">
      <feFlood flood-opacity="0" result="BackgroundImageFix" />
      <feColorMatrix in="SourceAlpha" type="matrix" values="0 0 0 0 0 0 0 0 0 0 0 0 0 0 0 0 0 0 127 0"
        result="hardAlpha" />
      <feOffset />
      <feGaussianBlur stdDeviation="4" />
      <feComposite in2="hardAlpha" operator="out" />
      <feColorMatrix type="matrix" values="0 0 0 0 1 0 0 0 0 0.80475 0 0 0 0 0.1125 0 0 0 1 0" />
      <feBlend mode="normal" in2="BackgroundImageFix" result="effect1_dropShadow_111_119" />
      <feBlend mode="normal" in="SourceGraphic" in2="effect1_dropShadow_111_119" result="shape" />
    </filter>
    <filter id="filter7_d_111_119" x="73.8906" y="44.291" width="28.823" height="28.5599" filterUnits="userSpaceOnUse"
      color-interpolation-filters="sRGB">
      <feFlood flood-opacity="0" result="BackgroundImageFix" />
      <feColorMatrix in="SourceAlpha" type="matrix" values="0 0 0 0 0 0 0 0 0 0 0 0 0 0 0 0 0 0 127 0"
        result="hardAlpha" />
      <feOffset />
      <feGaussianBlur stdDeviation="4" />
      <feComposite in2="hardAlpha" operator="out" />
      <feColorMatrix type="matrix" values="0 0 0 0 1 0 0 0 0 0.80475 0 0 0 0 0.1125 0 0 0 1 0" />
      <feBlend mode="normal" in2="BackgroundImageFix" result="effect1_dropShadow_111_119" />
      <feBlend mode="normal" in="SourceGraphic" in2="effect1_dropShadow_111_119" result="shape" />
    </filter>
    <filter id="filter8_d_111_119" x="74.1226" y="74.2048" width="28.8374" height="28.4688" filterUnits="userSpaceOnUse"
      color-interpolation-filters="sRGB">
      <feFlood flood-opacity="0" result="BackgroundImageFix" />
      <feColorMatrix in="SourceAlpha" type="matrix" values="0 0 0 0 0 0 0 0 0 0 0 0 0 0 0 0 0 0 127 0"
        result="hardAlpha" />
      <feOffset />
      <feGaussianBlur stdDeviation="4" />
      <feComposite in2="hardAlpha" operator="out" />
      <feColorMatrix type="matrix" values="0 0 0 0 1 0 0 0 0 0.80475 0 0 0 0 0.1125 0 0 0 1 0" />
      <feBlend mode="normal" in2="BackgroundImageFix" result="effect1_dropShadow_111_119" />
      <feBlend mode="normal" in="SourceGraphic" in2="effect1_dropShadow_111_119" result="shape" />
    </filter>
  </defs>
</svg>