<svg width="100" height="100" viewBox="0 0 100 100" fill="none" xmlns="http://www.w3.org/2000/svg">
  <g filter="url(#filter0_d_111_92)">
    <path
      d="M12.9435 59.2794C12.4873 58.0325 13.3505 56.6953 14.6747 56.5976L15.9837 56.5011C16.3797 56.4719 16.758 56.3254 17.0705 56.0805L18.1035 55.2706C19.1484 54.4514 20.6869 54.8591 21.189 56.0883L21.6853 57.3034C21.8355 57.671 22.0916 57.9856 22.4212 58.2071L23.5106 58.9393C24.6126 59.6799 24.7003 61.269 23.6864 62.1264L22.6841 62.9739C22.3809 63.2303 22.1609 63.5712 22.0521 63.9531L21.6924 65.2154C21.3285 66.4923 19.8443 67.0668 18.7156 66.3675L17.5998 65.6761C17.2623 65.467 16.8701 65.3631 16.4733 65.3776L15.1616 65.4256C13.8347 65.4742 12.8297 64.2401 13.146 62.9505L13.4587 61.6757C13.5533 61.2901 13.531 60.885 13.3945 60.5121L12.9435 59.2794Z"
      fill="#FFCD1D" />
  </g>
  <g filter="url(#filter1_d_111_92)">
    <path
      d="M25.9872 55.9372C24.7612 55.4273 24.3633 53.8863 25.1891 52.8466L26.0055 51.8188C26.2524 51.5079 26.4013 51.1305 26.433 50.7347L26.5378 49.4263C26.6439 48.1027 27.9865 47.2481 29.2305 47.7122L30.4603 48.171C30.8324 48.3098 31.2373 48.3347 31.6235 48.2426L32.9003 47.938C34.1918 47.6299 35.4195 48.6427 35.3625 49.9692L35.3062 51.2806C35.2892 51.6773 35.3906 52.0701 35.5976 52.409L36.2818 53.5291C36.974 54.6622 36.3901 56.1428 35.1109 56.4986L33.8463 56.8502C33.4637 56.9566 33.1215 57.1745 32.8632 57.476L32.0093 58.4729C31.1455 59.4813 29.557 59.3836 28.8234 58.2769L28.0981 57.1829C27.8787 56.8519 27.5658 56.5937 27.1991 56.4413L25.9872 55.9372Z"
      fill="#FFCD1D" />
  </g>
  <g filter="url(#filter2_d_111_92)">
    <path
      d="M76.236 68.8699C77.5066 68.4847 78.793 69.4218 78.8159 70.7494L78.8385 72.0618C78.8454 72.4588 78.9703 72.8448 79.1973 73.1706L79.9476 74.2476C80.7066 75.337 80.2129 76.8501 78.9573 77.2821L77.7162 77.7092C77.3407 77.8384 77.0122 78.0764 76.7725 78.393L75.9801 79.4394C75.1785 80.4979 73.587 80.4959 72.7881 79.4353L71.9984 78.3869C71.7595 78.0697 71.4316 77.8308 71.0564 77.7006L69.8164 77.2704C68.562 76.8352 68.0721 75.3209 68.8339 74.2334L69.587 73.1583C69.8148 72.8331 69.9407 72.4474 69.9485 72.0504L69.9745 70.7381C70.0008 69.4106 71.2896 68.4768 72.5593 68.8652L73.8144 69.2493C74.1941 69.3654 74.5998 69.3659 74.9798 69.2507L76.236 68.8699Z"
      fill="#FFCD1D" />
  </g>
  <line x1="85.1431" y1="35.1329" x2="74.2944" y2="74.4804" stroke="#FFCD1D" stroke-opacity="0.44" />
  <line x1="44.5553" y1="43.4141" x2="18.5582" y2="60.9977" stroke="#FFCD1D" stroke-opacity="0.44" />
  <g filter="url(#filter3_d_111_92)">
    <path
      d="M59.2161 58.8756C58.075 58.1967 57.9 56.6148 58.8651 55.703L59.8192 54.8015C60.1079 54.5288 60.3088 54.1764 60.3964 53.7891L60.6861 52.5089C60.979 51.2138 62.4294 50.5585 63.5949 51.1947L64.7471 51.8235C65.0956 52.0137 65.4929 52.0959 65.8883 52.0596L67.1954 51.9394C68.5176 51.8179 69.589 52.9948 69.3442 54.2998L69.1021 55.5899C69.0289 55.9802 69.0735 56.3834 69.2303 56.7482L69.7485 57.9542C70.2726 59.1741 69.4844 60.5568 68.1676 60.7272L66.8659 60.8957C66.4721 60.9466 66.1024 61.1137 65.8038 61.3755L64.817 62.241C63.8188 63.1165 62.2602 62.7941 61.6912 61.5944L61.1287 60.4084C60.9586 60.0497 60.6855 59.7497 60.3442 59.5467L59.2161 58.8756Z"
      fill="#FFCD1D" />
  </g>
  <g filter="url(#filter4_d_111_92)">
    <path
      d="M39.4188 46.0341C38.2777 45.3552 38.1026 43.7733 39.0678 42.8615L40.0219 41.96C40.3105 41.6873 40.5114 41.3349 40.599 40.9476L40.8887 39.6674C41.1817 38.3723 42.6321 37.7171 43.7976 38.3532L44.9497 38.982C45.2983 39.1722 45.6955 39.2544 46.0909 39.2181L47.398 39.0979C48.7202 38.9764 49.7916 40.1533 49.5468 41.4583L49.3048 42.7484C49.2316 43.1387 49.2762 43.5419 49.4329 43.9067L49.9511 45.1127C50.4753 46.3326 49.687 47.7153 48.3702 47.8857L47.0685 48.0542C46.6747 48.1052 46.305 48.2722 46.0065 48.534L45.0196 49.3995C44.0214 50.275 42.4628 49.9526 41.8939 48.7529L41.3314 47.567C41.1612 47.2082 40.8881 46.9082 40.5468 46.7052L39.4188 46.0341Z"
      fill="#FFCD1D" />
  </g>
  <g filter="url(#filter5_d_111_92)">
    <path
      d="M78.0938 37.382C76.9527 36.7031 76.7777 35.1212 77.7428 34.2094L78.6969 33.3079C78.9856 33.0352 79.1865 32.6828 79.2741 32.2955L79.5637 31.0153C79.8567 29.7202 81.3071 29.065 82.4726 29.7011L83.6248 30.3299C83.9733 30.5201 84.3706 30.6023 84.766 30.566L86.0731 30.4458C87.3953 30.3243 88.4667 31.5012 88.2218 32.8062L87.9798 34.0963C87.9066 34.4866 87.9512 34.8898 88.108 35.2546L88.6261 36.4606C89.1503 37.6805 88.3621 39.0632 87.0453 39.2336L85.7436 39.4021C85.3498 39.4531 84.9801 39.6201 84.6815 39.8819L83.6947 40.7474C82.6965 41.6229 81.1379 41.3005 80.5689 40.1008L80.0064 38.9149C79.8363 38.5561 79.5631 38.2561 79.2219 38.0531L78.0938 37.382Z"
      fill="#FFCD1D" />
  </g>
  <g filter="url(#filter6_d_111_92)">
    <path
      d="M49.4931 23.2755C48.6645 22.2379 49.0583 20.6959 50.283 20.1828L51.4936 19.6755C51.8598 19.5221 52.1721 19.2631 52.3906 18.9315L53.1129 17.8356C53.8436 16.7269 55.4319 16.625 56.2983 17.6311L57.1549 18.6257C57.414 18.9266 57.7568 19.1436 58.1396 19.2489L59.4052 19.5973C60.6853 19.9496 61.2731 21.4287 60.584 22.5636L59.9027 23.6855C59.6966 24.025 59.5962 24.418 59.6143 24.8147L59.6741 26.1259C59.7346 27.4523 58.5096 28.4684 57.2172 28.1637L55.9397 27.8625C55.5532 27.7713 55.1483 27.7973 54.7767 27.9371L53.5481 28.3992C52.3053 28.8666 50.9605 28.0155 50.8509 26.6922L50.7426 25.3841C50.7098 24.9884 50.56 24.6114 50.3122 24.3011L49.4931 23.2755Z"
      fill="#FFCD1D" />
  </g>
  <line x1="85.3303" y1="32.2158" x2="64.7489" y2="57.0881" stroke="#FFCD1D" stroke-opacity="0.44" />
  <line x1="44.6806" y1="43.6283" x2="61.8223" y2="55.3428" stroke="#FFCD1D" stroke-opacity="0.44" />
  <line x1="43.9356" y1="43.8519" x2="52.5372" y2="22.8108" stroke="#FFCD1D" stroke-opacity="0.44" />
  <line x1="56.1942" y1="22.5392" x2="86.2389" y2="35.2022" stroke="#FFCD1D" stroke-opacity="0.44" />
  <defs>
    <filter id="filter0_d_111_92" x="4.82031" y="46.8439" width="27.5747" height="27.8246" filterUnits="userSpaceOnUse"
      color-interpolation-filters="sRGB">
      <feFlood flood-opacity="0" result="BackgroundImageFix" />
      <feColorMatrix in="SourceAlpha" type="matrix" values="0 0 0 0 0 0 0 0 0 0 0 0 0 0 0 0 0 0 127 0"
        result="hardAlpha" />
      <feOffset />
      <feGaussianBlur stdDeviation="4" />
      <feComposite in2="hardAlpha" operator="out" />
      <feColorMatrix type="matrix" values="0 0 0 0 1 0 0 0 0 0.80475 0 0 0 0 0.1125 0 0 0 1 0" />
      <feBlend mode="normal" in2="BackgroundImageFix" result="effect1_dropShadow_111_92" />
      <feBlend mode="normal" in="SourceGraphic" in2="effect1_dropShadow_111_92" result="shape" />
    </filter>
    <filter id="filter1_d_111_92" x="16.7546" y="39.5846" width="27.8215" height="27.5873" filterUnits="userSpaceOnUse"
      color-interpolation-filters="sRGB">
      <feFlood flood-opacity="0" result="BackgroundImageFix" />
      <feColorMatrix in="SourceAlpha" type="matrix" values="0 0 0 0 0 0 0 0 0 0 0 0 0 0 0 0 0 0 127 0"
        result="hardAlpha" />
      <feOffset />
      <feGaussianBlur stdDeviation="4" />
      <feComposite in2="hardAlpha" operator="out" />
      <feColorMatrix type="matrix" values="0 0 0 0 1 0 0 0 0 0.80475 0 0 0 0 0.1125 0 0 0 1 0" />
      <feBlend mode="normal" in2="BackgroundImageFix" result="effect1_dropShadow_111_92" />
      <feBlend mode="normal" in="SourceGraphic" in2="effect1_dropShadow_111_92" result="shape" />
    </filter>
    <filter id="filter2_d_111_92" x="60.4709" y="60.7764" width="27.8367" height="27.4556" filterUnits="userSpaceOnUse"
      color-interpolation-filters="sRGB">
      <feFlood flood-opacity="0" result="BackgroundImageFix" />
      <feColorMatrix in="SourceAlpha" type="matrix" values="0 0 0 0 0 0 0 0 0 0 0 0 0 0 0 0 0 0 127 0"
        result="hardAlpha" />
      <feOffset />
      <feGaussianBlur stdDeviation="4" />
      <feComposite in2="hardAlpha" operator="out" />
      <feColorMatrix type="matrix" values="0 0 0 0 1 0 0 0 0 0.80475 0 0 0 0 0.1125 0 0 0 1 0" />
      <feBlend mode="normal" in2="BackgroundImageFix" result="effect1_dropShadow_111_92" />
      <feBlend mode="normal" in="SourceGraphic" in2="effect1_dropShadow_111_92" result="shape" />
    </filter>
    <filter id="filter3_d_111_92" x="50.2385" y="42.9489" width="27.6738" height="27.7889" filterUnits="userSpaceOnUse"
      color-interpolation-filters="sRGB">
      <feFlood flood-opacity="0" result="BackgroundImageFix" />
      <feColorMatrix in="SourceAlpha" type="matrix" values="0 0 0 0 0 0 0 0 0 0 0 0 0 0 0 0 0 0 127 0"
        result="hardAlpha" />
      <feOffset />
      <feGaussianBlur stdDeviation="4" />
      <feComposite in2="hardAlpha" operator="out" />
      <feColorMatrix type="matrix" values="0 0 0 0 1 0 0 0 0 0.80475 0 0 0 0 0.1125 0 0 0 1 0" />
      <feBlend mode="normal" in2="BackgroundImageFix" result="effect1_dropShadow_111_92" />
      <feBlend mode="normal" in="SourceGraphic" in2="effect1_dropShadow_111_92" result="shape" />
    </filter>
    <filter id="filter4_d_111_92" x="30.4412" y="30.1074" width="27.6738" height="27.7889" filterUnits="userSpaceOnUse"
      color-interpolation-filters="sRGB">
      <feFlood flood-opacity="0" result="BackgroundImageFix" />
      <feColorMatrix in="SourceAlpha" type="matrix" values="0 0 0 0 0 0 0 0 0 0 0 0 0 0 0 0 0 0 127 0"
        result="hardAlpha" />
      <feOffset />
      <feGaussianBlur stdDeviation="4" />
      <feComposite in2="hardAlpha" operator="out" />
      <feColorMatrix type="matrix" values="0 0 0 0 1 0 0 0 0 0.80475 0 0 0 0 0.1125 0 0 0 1 0" />
      <feBlend mode="normal" in2="BackgroundImageFix" result="effect1_dropShadow_111_92" />
      <feBlend mode="normal" in="SourceGraphic" in2="effect1_dropShadow_111_92" result="shape" />
    </filter>
    <filter id="filter5_d_111_92" x="69.1162" y="21.4553" width="27.6738" height="27.7889" filterUnits="userSpaceOnUse"
      color-interpolation-filters="sRGB">
      <feFlood flood-opacity="0" result="BackgroundImageFix" />
      <feColorMatrix in="SourceAlpha" type="matrix" values="0 0 0 0 0 0 0 0 0 0 0 0 0 0 0 0 0 0 127 0"
        result="hardAlpha" />
      <feOffset />
      <feGaussianBlur stdDeviation="4" />
      <feComposite in2="hardAlpha" operator="out" />
      <feColorMatrix type="matrix" values="0 0 0 0 1 0 0 0 0 0.80475 0 0 0 0 0.1125 0 0 0 1 0" />
      <feBlend mode="normal" in2="BackgroundImageFix" result="effect1_dropShadow_111_92" />
      <feBlend mode="normal" in="SourceGraphic" in2="effect1_dropShadow_111_92" result="shape" />
    </filter>
    <filter id="filter6_d_111_92" x="41.0552" y="8.93616" width="27.8203" height="27.5925" filterUnits="userSpaceOnUse"
      color-interpolation-filters="sRGB">
      <feFlood flood-opacity="0" result="BackgroundImageFix" />
      <feColorMatrix in="SourceAlpha" type="matrix" values="0 0 0 0 0 0 0 0 0 0 0 0 0 0 0 0 0 0 127 0"
        result="hardAlpha" />
      <feOffset />
      <feGaussianBlur stdDeviation="4" />
      <feComposite in2="hardAlpha" operator="out" />
      <feColorMatrix type="matrix" values="0 0 0 0 1 0 0 0 0 0.80475 0 0 0 0 0.1125 0 0 0 1 0" />
      <feBlend mode="normal" in2="BackgroundImageFix" result="effect1_dropShadow_111_92" />
      <feBlend mode="normal" in="SourceGraphic" in2="effect1_dropShadow_111_92" result="shape" />
    </filter>
  </defs>
</svg>