<svg width="105" height="100" viewBox="0 0 105 100" fill="none" xmlns="http://www.w3.org/2000/svg">
  <g filter="url(#filter0_d_111_141)">
    <path
      d="M94.2564 36.2075C94.0117 37.5125 92.5866 38.2212 91.3983 37.6288L89.9335 36.8986C89.5781 36.7214 89.1781 36.654 88.7843 36.705L87.1611 36.9153C85.8443 37.0858 84.73 35.9495 84.9262 34.6363L85.168 33.0175C85.2267 32.6248 85.1672 32.2235 84.997 31.8648L84.2954 30.386C83.7263 29.1864 84.4627 27.7754 85.7722 27.5562L87.3865 27.286C87.7781 27.2204 88.1414 27.0398 88.43 26.7671L89.6196 25.6429C90.5846 24.731 92.1541 24.9952 92.7672 26.173L93.5231 27.6247C93.7064 27.9769 93.9905 28.2666 94.339 28.4568L95.7758 29.2408C96.9413 29.8768 97.175 31.4511 96.2443 32.3982L95.0972 33.5656C94.8189 33.8489 94.6312 34.2085 94.558 34.5988L94.2564 36.2075Z"
      fill="#FFCD1D" />
  </g>
  <g filter="url(#filter1_d_111_141)">
    <path
      d="M61.625 16.6137C62.7989 15.9932 64.2404 16.6678 64.5161 17.9667L64.8559 19.5677C64.9383 19.9562 65.1345 20.3113 65.4195 20.5878L66.594 21.7276C67.5469 22.6523 67.3507 24.2318 66.2006 24.8953L64.7829 25.7132C64.439 25.9116 64.1619 26.208 63.987 26.5644L63.2659 28.0337C62.6809 29.2257 61.1181 29.5272 60.1317 28.6385L58.9157 27.5429C58.6207 27.2771 58.2533 27.1051 57.8602 27.0489L56.2399 26.8171C54.9255 26.6291 54.1559 25.2361 54.6963 24.0232L55.3625 22.5282C55.5241 22.1655 55.5741 21.7629 55.5061 21.3717L55.2259 19.7592C54.9985 18.451 56.0856 17.2885 57.406 17.4277L59.0337 17.5993C59.4286 17.6409 59.827 17.5641 60.178 17.3785L61.625 16.6137Z"
      fill="#FFCD1D" />
  </g>
  <g filter="url(#filter2_d_111_141)">
    <path
      d="M78.48 57.7039C77.828 56.5473 78.4633 55.088 79.7542 54.7773L81.3455 54.3943C81.7316 54.3013 82.0812 54.0956 82.3499 53.8033L83.4576 52.5983C84.3561 51.6207 85.9402 51.774 86.6347 52.9057L87.4907 54.3008C87.6984 54.6392 88.0021 54.9082 88.3632 55.0734L89.8515 55.7544C91.0588 56.3069 91.4026 57.8609 90.5408 58.8711L89.4786 60.1163C89.2209 60.4184 89.0589 60.7903 89.0134 61.1848L88.8256 62.8107C88.6732 64.1297 87.3015 64.9368 86.0745 64.4294L84.562 63.804C84.1951 63.6523 83.7913 63.6132 83.402 63.6917L81.7976 64.0156C80.4961 64.2783 79.3046 63.2231 79.408 61.8994L79.5355 60.2676C79.5664 59.8717 79.4788 59.4756 79.2838 59.1297L78.48 57.7039Z"
      fill="#FFCD1D" />
  </g>
  <g filter="url(#filter3_d_111_141)">
    <path
      d="M65.1004 58.718C64.8557 60.0231 63.4306 60.7317 62.2423 60.1393L60.7775 59.4091C60.4221 59.2319 60.0221 59.1646 59.6283 59.2156L58.0051 59.4258C56.6883 59.5963 55.574 58.46 55.7702 57.1468L56.012 55.5281C56.0707 55.1353 56.0111 54.734 55.8409 54.3753L55.1394 52.8965C54.5703 51.6969 55.3067 50.2859 56.6162 50.0667L58.2305 49.7965C58.6221 49.731 58.9854 49.5503 59.274 49.2776L60.4636 48.1534C61.4286 47.2415 62.9981 47.5058 63.6112 48.6835L64.367 50.1353C64.5504 50.4875 64.8345 50.7771 65.183 50.9673L66.6198 51.7513C67.7853 52.3873 68.0189 53.9616 67.0883 54.9087L65.9412 56.0762C65.6629 56.3594 65.4752 56.719 65.402 57.1093L65.1004 58.718Z"
      fill="#FFCD1D" />
  </g>
  <g filter="url(#filter4_d_111_141)">
    <path
      d="M47.0955 76.1486C46.8508 77.4536 45.4257 78.1623 44.2374 77.5699L42.7726 76.8397C42.4172 76.6625 42.0172 76.5951 41.6234 76.6461L40.0002 76.8564C38.6834 77.0269 37.5691 75.8906 37.7653 74.5774L38.0071 72.9586C38.0658 72.5659 38.0063 72.1646 37.8361 71.8059L37.1345 70.3271C36.5654 69.1275 37.3018 67.7165 38.6113 67.4973L40.2256 67.2271C40.6172 67.1615 40.9805 66.9809 41.2691 66.7082L42.4587 65.584C43.4237 64.6721 44.9932 64.9363 45.6063 66.1141L46.3622 67.5658C46.5455 67.918 46.8296 68.2077 47.1781 68.3979L48.6149 69.1819C49.7804 69.8179 50.0141 71.3922 49.0835 72.3393L47.9363 73.5067C47.658 73.79 47.4703 74.1496 47.3971 74.5399L47.0955 76.1486Z"
      fill="#FFCD1D" />
  </g>
  <g filter="url(#filter5_d_111_141)">
    <path
      d="M22.7132 67.2075C22.4684 68.5125 21.0434 69.2212 19.8551 68.6288L18.3903 67.8986C18.0349 67.7214 17.6349 67.654 17.2411 67.705L15.6179 67.9153C14.3011 68.0858 13.1868 66.9495 13.383 65.6363L13.6248 64.0175C13.6835 63.6248 13.6239 63.2235 13.4537 62.8648L12.7522 61.386C12.1831 60.1864 12.9195 58.7754 14.229 58.5562L15.8433 58.286C16.2349 58.2204 16.5982 58.0398 16.8868 57.7671L18.0764 56.6429C19.0414 55.731 20.6109 55.9952 21.224 57.173L21.9798 58.6247C22.1632 58.9769 22.4473 59.2666 22.7958 59.4568L24.2326 60.2408C25.3981 60.8768 25.6317 62.4511 24.7011 63.3982L23.554 64.5656C23.2757 64.8489 23.088 65.2085 23.0148 65.5988L22.7132 67.2075Z"
      fill="#FFCD1D" />
  </g>
  <g filter="url(#filter6_d_111_141)">
    <path
      d="M19.2542 40.7913C17.927 40.7514 17.0064 39.4531 17.4079 38.1874L17.9028 36.6273C18.0228 36.2488 18.0275 35.8432 17.9162 35.462L17.4574 33.8909C17.0852 32.6163 18.0355 31.3396 19.3633 31.3303L20.9999 31.3189C21.397 31.3161 21.7843 31.1952 22.1124 30.9715L23.4648 30.0497C24.562 29.3019 26.0699 29.8111 26.489 31.071L27.0057 32.6241C27.131 33.0008 27.3657 33.3318 27.6798 33.5747L28.9744 34.5761C30.0247 35.3885 30.0063 36.9799 28.9376 37.7679L27.6202 38.7392C27.3006 38.9748 27.0584 39.3002 26.9244 39.674L26.3721 41.2147C25.924 42.4646 24.4048 42.939 23.3252 42.1661L21.9943 41.2133C21.6715 40.9822 21.2871 40.8524 20.8902 40.8404L19.2542 40.7913Z"
      fill="#FFCD1D" />
  </g>
  <g filter="url(#filter7_d_111_141)">
    <path
      d="M19.2132 73.9392C20.5133 74.2086 21.1949 75.6468 20.5801 76.8237L19.8222 78.2744C19.6383 78.6263 19.5634 79.025 19.6069 79.4197L19.7863 81.0466C19.9319 82.3663 18.7746 83.459 17.4654 83.2379L15.8515 82.9654C15.4599 82.8993 15.0576 82.9512 14.6957 83.1146L13.2039 83.7879C11.9937 84.3342 10.5969 83.5712 10.4026 82.2578L10.163 80.6386C10.1049 80.2458 9.93119 79.8792 9.66399 79.5855L8.56258 78.3748C7.66909 77.3926 7.9631 75.8285 9.15223 75.2378L10.6181 74.5096C10.9737 74.333 11.2687 74.0544 11.4655 73.7096L12.2766 72.2879C12.9345 71.1347 14.513 70.9309 15.4423 71.8793L16.5877 73.0484C16.8656 73.332 17.2217 73.5265 17.6105 73.6071L19.2132 73.9392Z"
      fill="#FFCD1D" />
  </g>
  <line x1="61.0884" y1="53.6208" x2="89.695" y2="31.6038" stroke="#FFCD1D" stroke-opacity="0.44" />
  <line x1="86.9075" y1="29.1877" x2="60.0435" y2="23.5021" stroke="#FFCD1D" stroke-opacity="0.44" />
  <line x1="90.3648" y1="32.0902" x2="85.4089" y2="59.0983" stroke="#FFCD1D" stroke-opacity="0.44" />
  <line x1="43.028" y1="71.101" x2="60.0783" y2="53.3728" stroke="#FFCD1D" stroke-opacity="0.44" />
  <line x1="19.6706" y1="63.5284" x2="43.5372" y2="70.9703" stroke="#FFCD1D" stroke-opacity="0.44" />
  <line x1="22.4184" y1="37.2162" x2="18.7579" y2="61.9467" stroke="#FFCD1D" stroke-opacity="0.44" />
  <line x1="15.5994" y1="74.49" x2="20.3668" y2="61.8239" stroke="#FFCD1D" stroke-opacity="0.44" />
  <defs>
    <filter id="filter0_d_111_141" x="76.1011" y="17.0962" width="28.717" height="28.7441" filterUnits="userSpaceOnUse"
      color-interpolation-filters="sRGB">
      <feFlood flood-opacity="0" result="BackgroundImageFix" />
      <feColorMatrix in="SourceAlpha" type="matrix" values="0 0 0 0 0 0 0 0 0 0 0 0 0 0 0 0 0 0 127 0"
        result="hardAlpha" />
      <feOffset />
      <feGaussianBlur stdDeviation="4" />
      <feComposite in2="hardAlpha" operator="out" />
      <feColorMatrix type="matrix" values="0 0 0 0 1 0 0 0 0 0.80475 0 0 0 0 0.1125 0 0 0 1 0" />
      <feBlend mode="normal" in2="BackgroundImageFix" result="effect1_dropShadow_111_141" />
      <feBlend mode="normal" in="SourceGraphic" in2="effect1_dropShadow_111_141" result="shape" />
    </filter>
    <filter id="filter1_d_111_141" x="46.5217" y="8.38052" width="28.6797" height="28.7725" filterUnits="userSpaceOnUse"
      color-interpolation-filters="sRGB">
      <feFlood flood-opacity="0" result="BackgroundImageFix" />
      <feColorMatrix in="SourceAlpha" type="matrix" values="0 0 0 0 0 0 0 0 0 0 0 0 0 0 0 0 0 0 127 0"
        result="hardAlpha" />
      <feOffset />
      <feGaussianBlur stdDeviation="4" />
      <feComposite in2="hardAlpha" operator="out" />
      <feColorMatrix type="matrix" values="0 0 0 0 1 0 0 0 0 0.80475 0 0 0 0 0.1125 0 0 0 1 0" />
      <feBlend mode="normal" in2="BackgroundImageFix" result="effect1_dropShadow_111_141" />
      <feBlend mode="normal" in="SourceGraphic" in2="effect1_dropShadow_111_141" result="shape" />
    </filter>
    <filter id="filter2_d_111_141" x="70.2209" y="43.9516" width="28.7988" height="28.6311" filterUnits="userSpaceOnUse"
      color-interpolation-filters="sRGB">
      <feFlood flood-opacity="0" result="BackgroundImageFix" />
      <feColorMatrix in="SourceAlpha" type="matrix" values="0 0 0 0 0 0 0 0 0 0 0 0 0 0 0 0 0 0 127 0"
        result="hardAlpha" />
      <feOffset />
      <feGaussianBlur stdDeviation="4" />
      <feComposite in2="hardAlpha" operator="out" />
      <feColorMatrix type="matrix" values="0 0 0 0 1 0 0 0 0 0.80475 0 0 0 0 0.1125 0 0 0 1 0" />
      <feBlend mode="normal" in2="BackgroundImageFix" result="effect1_dropShadow_111_141" />
      <feBlend mode="normal" in="SourceGraphic" in2="effect1_dropShadow_111_141" result="shape" />
    </filter>
    <filter id="filter3_d_111_141" x="46.9451" y="39.6068" width="28.717" height="28.7441" filterUnits="userSpaceOnUse"
      color-interpolation-filters="sRGB">
      <feFlood flood-opacity="0" result="BackgroundImageFix" />
      <feColorMatrix in="SourceAlpha" type="matrix" values="0 0 0 0 0 0 0 0 0 0 0 0 0 0 0 0 0 0 127 0"
        result="hardAlpha" />
      <feOffset />
      <feGaussianBlur stdDeviation="4" />
      <feComposite in2="hardAlpha" operator="out" />
      <feColorMatrix type="matrix" values="0 0 0 0 1 0 0 0 0 0.80475 0 0 0 0 0.1125 0 0 0 1 0" />
      <feBlend mode="normal" in2="BackgroundImageFix" result="effect1_dropShadow_111_141" />
      <feBlend mode="normal" in="SourceGraphic" in2="effect1_dropShadow_111_141" result="shape" />
    </filter>
    <filter id="filter4_d_111_141" x="28.9402" y="57.0373" width="28.717" height="28.7441" filterUnits="userSpaceOnUse"
      color-interpolation-filters="sRGB">
      <feFlood flood-opacity="0" result="BackgroundImageFix" />
      <feColorMatrix in="SourceAlpha" type="matrix" values="0 0 0 0 0 0 0 0 0 0 0 0 0 0 0 0 0 0 127 0"
        result="hardAlpha" />
      <feOffset />
      <feGaussianBlur stdDeviation="4" />
      <feComposite in2="hardAlpha" operator="out" />
      <feColorMatrix type="matrix" values="0 0 0 0 1 0 0 0 0 0.80475 0 0 0 0 0.1125 0 0 0 1 0" />
      <feBlend mode="normal" in2="BackgroundImageFix" result="effect1_dropShadow_111_141" />
      <feBlend mode="normal" in="SourceGraphic" in2="effect1_dropShadow_111_141" result="shape" />
    </filter>
    <filter id="filter5_d_111_141" x="4.55786" y="48.0962" width="28.717" height="28.7441" filterUnits="userSpaceOnUse"
      color-interpolation-filters="sRGB">
      <feFlood flood-opacity="0" result="BackgroundImageFix" />
      <feColorMatrix in="SourceAlpha" type="matrix" values="0 0 0 0 0 0 0 0 0 0 0 0 0 0 0 0 0 0 127 0"
        result="hardAlpha" />
      <feOffset />
      <feGaussianBlur stdDeviation="4" />
      <feComposite in2="hardAlpha" operator="out" />
      <feColorMatrix type="matrix" values="0 0 0 0 1 0 0 0 0 0.80475 0 0 0 0 0.1125 0 0 0 1 0" />
      <feBlend mode="normal" in2="BackgroundImageFix" result="effect1_dropShadow_111_141" />
      <feBlend mode="normal" in="SourceGraphic" in2="effect1_dropShadow_111_141" result="shape" />
    </filter>
    <filter id="filter6_d_111_141" x="9.31299" y="21.7014" width="28.4377" height="28.8394" filterUnits="userSpaceOnUse"
      color-interpolation-filters="sRGB">
      <feFlood flood-opacity="0" result="BackgroundImageFix" />
      <feColorMatrix in="SourceAlpha" type="matrix" values="0 0 0 0 0 0 0 0 0 0 0 0 0 0 0 0 0 0 127 0"
        result="hardAlpha" />
      <feOffset />
      <feGaussianBlur stdDeviation="4" />
      <feComposite in2="hardAlpha" operator="out" />
      <feColorMatrix type="matrix" values="0 0 0 0 1 0 0 0 0 0.80475 0 0 0 0 0.1125 0 0 0 1 0" />
      <feBlend mode="normal" in2="BackgroundImageFix" result="effect1_dropShadow_111_141" />
      <feBlend mode="normal" in="SourceGraphic" in2="effect1_dropShadow_111_141" result="shape" />
    </filter>
    <filter id="filter7_d_111_141" x="0.0415039" y="63.2789" width="28.7673" height="28.6876"
      filterUnits="userSpaceOnUse" color-interpolation-filters="sRGB">
      <feFlood flood-opacity="0" result="BackgroundImageFix" />
      <feColorMatrix in="SourceAlpha" type="matrix" values="0 0 0 0 0 0 0 0 0 0 0 0 0 0 0 0 0 0 127 0"
        result="hardAlpha" />
      <feOffset />
      <feGaussianBlur stdDeviation="4" />
      <feComposite in2="hardAlpha" operator="out" />
      <feColorMatrix type="matrix" values="0 0 0 0 1 0 0 0 0 0.80475 0 0 0 0 0.1125 0 0 0 1 0" />
      <feBlend mode="normal" in2="BackgroundImageFix" result="effect1_dropShadow_111_141" />
      <feBlend mode="normal" in="SourceGraphic" in2="effect1_dropShadow_111_141" result="shape" />
    </filter>
  </defs>
</svg>