<svg width="44" height="44" viewBox="0 0 44 44" fill="none" xmlns="http://www.w3.org/2000/svg">
  <circle cx="22" cy="22" r="22" fill="#757575" fill-opacity="0.56" />
  <path
    d="M34.0938 11.8438H8.90625C8.37041 11.8438 7.9375 12.2767 7.9375 12.8125V32.1875C7.9375 32.7233 8.37041 33.1562 8.90625 33.1562H34.0938C34.6296 33.1562 35.0625 32.7233 35.0625 32.1875V12.8125C35.0625 12.2767 34.6296 11.8438 34.0938 11.8438ZM32.8828 15.198V30.9766H10.1172V15.198L9.28164 14.5472L10.4714 13.0184L11.7671 14.0265H31.2359L32.5316 13.0184L33.7214 14.5472L32.8828 15.198ZM31.2359 14.0234L21.5 21.5918L11.7641 14.0234L10.4684 13.0153L9.27861 14.5441L10.1142 15.195L20.4556 23.2356C20.753 23.4667 21.1189 23.5921 21.4955 23.5921C21.8721 23.5921 22.2379 23.4667 22.5354 23.2356L32.8828 15.198L33.7184 14.5472L32.5286 13.0184L31.2359 14.0234Z"
    fill="white" />
</svg>