<svg width="100" height="100" viewBox="0 0 100 100" fill="none" xmlns="http://www.w3.org/2000/svg">
  <g filter="url(#filter0_d_90_58)">
    <path
      d="M36.6885 14.5656C38.0073 14.4108 39.108 15.5603 38.8962 16.871L38.6351 18.4868C38.5717 18.8788 38.6265 19.2808 38.7924 19.6415L39.4763 21.1285C40.0311 22.3348 39.278 23.737 37.9659 23.9405L36.3486 24.1915C35.9562 24.2524 35.5908 24.4287 35.299 24.698L34.0961 25.8079C33.1202 26.7083 31.554 26.4254 30.955 25.2404L30.2165 23.7798C30.0373 23.4254 29.7567 23.1324 29.4105 22.9381L27.9831 22.137C26.8253 21.4872 26.6104 19.9102 27.5522 18.9743L28.7132 17.8206C28.9948 17.5407 29.1868 17.1833 29.2646 16.7939L29.5854 15.1889C29.8456 13.8869 31.279 13.1952 32.4601 13.8017L33.9162 14.5493C34.2694 14.7307 34.6686 14.8028 35.063 14.7565L36.6885 14.5656Z"
      fill="#FFCD1D" />
  </g>
  <g filter="url(#filter1_d_90_58)">
    <path
      d="M23.8931 37.8466C25.2118 37.6917 26.3126 38.8412 26.1008 40.152L25.8397 41.7677C25.7763 42.1597 25.8311 42.5617 25.997 42.9225L26.6809 44.4095C27.2357 45.6158 26.4826 47.0179 25.1705 47.2215L23.5532 47.4725C23.1608 47.5334 22.7954 47.7097 22.5036 47.9789L21.3007 49.0889C20.3248 49.9893 18.7586 49.7063 18.1596 48.5214L17.4211 47.0607C17.2419 46.7063 16.9613 46.4133 16.615 46.219L15.1877 45.418C14.0298 44.7681 13.815 43.1911 14.7568 42.2552L15.9177 41.1015C16.1994 40.8216 16.3914 40.4642 16.4692 40.0748L16.79 38.4698C17.0502 37.1678 18.4836 36.4761 19.6647 37.0826L21.1207 37.8303C21.474 38.0116 21.8732 38.0838 22.2676 38.0375L23.8931 37.8466Z"
      fill="#FFCD1D" />
  </g>
  <g filter="url(#filter2_d_90_58)">
    <path
      d="M49.3328 45.5674C50.6515 45.4126 51.7523 46.5621 51.5405 47.8729L51.2794 49.4886C51.216 49.8806 51.2708 50.2826 51.4367 50.6434L52.1206 52.1304C52.6754 53.3367 51.9223 54.7388 50.6102 54.9424L48.9929 55.1934C48.6005 55.2542 48.2351 55.4306 47.9433 55.6998L46.7404 56.8097C45.7645 57.7102 44.1983 57.4272 43.5993 56.2423L42.8608 54.7816C42.6816 54.4272 42.401 54.1342 42.0547 53.9399L40.6274 53.1388C39.4695 52.489 39.2547 50.912 40.1965 49.9761L41.3574 48.8224C41.6391 48.5425 41.8311 48.1851 41.9089 47.7957L42.2297 46.1907C42.4899 44.8887 43.9233 44.197 45.1044 44.8035L46.5604 45.5512C46.9137 45.7325 47.3129 45.8047 47.7073 45.7583L49.3328 45.5674Z"
      fill="#FFCD1D" />
  </g>
  <g filter="url(#filter3_d_90_58)">
    <path
      d="M55.9446 71.3173C57.2634 71.1624 58.3641 72.3119 58.1523 73.6227L57.8912 75.2384C57.8279 75.6304 57.8826 76.0324 58.0485 76.3932L58.7324 77.8802C59.2872 79.0865 58.5341 80.4886 57.2221 80.6922L55.6047 80.9432C55.2123 81.0041 54.8469 81.1804 54.5551 81.4496L53.3522 82.5596C52.3764 83.46 50.8102 83.177 50.2111 81.9921L49.4726 80.5314C49.2934 80.1771 49.0128 79.884 48.6666 79.6897L47.2392 78.8887C46.0814 78.2388 45.8665 76.6619 46.8083 75.7259L47.9693 74.5722C48.2509 74.2923 48.4429 73.9349 48.5207 73.5455L48.8415 71.9405C49.1017 70.6385 50.5351 69.9468 51.7162 70.5533L53.1723 71.301C53.5255 71.4823 53.9247 71.5545 54.3191 71.5082L55.9446 71.3173Z"
      fill="#FFCD1D" />
  </g>
  <g filter="url(#filter4_d_90_58)">
    <path
      d="M85.3846 65.0616C86.7033 64.9067 87.8041 66.0562 87.5922 67.367L87.3311 68.9828C87.2678 69.3748 87.3226 69.7767 87.4885 70.1375L88.1724 71.6245C88.7272 72.8308 87.9741 74.2329 86.662 74.4365L85.0446 74.6875C84.6522 74.7484 84.2869 74.9247 83.995 75.194L82.7921 76.3039C81.8163 77.2043 80.2501 76.9213 79.651 75.7364L78.9125 74.2757C78.7334 73.9214 78.4528 73.6284 78.1065 73.434L76.6792 72.633C75.5213 71.9832 75.3064 70.4062 76.2482 69.4702L77.4092 68.3165C77.6909 68.0366 77.8828 67.6792 77.9606 67.2899L78.2814 65.6849C78.5416 64.3828 79.975 63.6912 81.1562 64.2977L82.6122 65.0453C82.9654 65.2267 83.3647 65.2988 83.759 65.2525L85.3846 65.0616Z"
      fill="#FFCD1D" />
  </g>
  <line x1="32.4677" y1="20.4655" x2="21.219" y2="43.2678" stroke="#FFCD1D" stroke-opacity="0.44" />
  <line x1="45.5303" y1="51.7431" x2="20.6139" y2="43.5214" stroke="#FFCD1D" stroke-opacity="0.44" />
  <line x1="52.338" y1="76.6416" x2="45.7259" y2="50.8917" stroke="#FFCD1D" stroke-opacity="0.44" />
  <line x1="78.0804" y1="72.4935" x2="53.4254" y2="76.51" stroke="#FFCD1D" stroke-opacity="0.44" />
  <defs>
    <filter id="filter0_d_90_58" x="18.9617" y="5.57947" width="28.699" height="28.7589" filterUnits="userSpaceOnUse"
      color-interpolation-filters="sRGB">
      <feFlood flood-opacity="0" result="BackgroundImageFix" />
      <feColorMatrix in="SourceAlpha" type="matrix" values="0 0 0 0 0 0 0 0 0 0 0 0 0 0 0 0 0 0 127 0"
        result="hardAlpha" />
      <feOffset />
      <feGaussianBlur stdDeviation="4" />
      <feComposite in2="hardAlpha" operator="out" />
      <feColorMatrix type="matrix" values="0 0 0 0 1 0 0 0 0 0.80475 0 0 0 0 0.1125 0 0 0 1 0" />
      <feBlend mode="normal" in2="BackgroundImageFix" result="effect1_dropShadow_90_58" />
      <feBlend mode="normal" in="SourceGraphic" in2="effect1_dropShadow_90_58" result="shape" />
    </filter>
    <filter id="filter1_d_90_58" x="6.16626" y="28.8604" width="28.699" height="28.7589" filterUnits="userSpaceOnUse"
      color-interpolation-filters="sRGB">
      <feFlood flood-opacity="0" result="BackgroundImageFix" />
      <feColorMatrix in="SourceAlpha" type="matrix" values="0 0 0 0 0 0 0 0 0 0 0 0 0 0 0 0 0 0 127 0"
        result="hardAlpha" />
      <feOffset />
      <feGaussianBlur stdDeviation="4" />
      <feComposite in2="hardAlpha" operator="out" />
      <feColorMatrix type="matrix" values="0 0 0 0 1 0 0 0 0 0.80475 0 0 0 0 0.1125 0 0 0 1 0" />
      <feBlend mode="normal" in2="BackgroundImageFix" result="effect1_dropShadow_90_58" />
      <feBlend mode="normal" in="SourceGraphic" in2="effect1_dropShadow_90_58" result="shape" />
    </filter>
    <filter id="filter2_d_90_58" x="31.606" y="36.5813" width="28.699" height="28.7589" filterUnits="userSpaceOnUse"
      color-interpolation-filters="sRGB">
      <feFlood flood-opacity="0" result="BackgroundImageFix" />
      <feColorMatrix in="SourceAlpha" type="matrix" values="0 0 0 0 0 0 0 0 0 0 0 0 0 0 0 0 0 0 127 0"
        result="hardAlpha" />
      <feOffset />
      <feGaussianBlur stdDeviation="4" />
      <feComposite in2="hardAlpha" operator="out" />
      <feColorMatrix type="matrix" values="0 0 0 0 1 0 0 0 0 0.80475 0 0 0 0 0.1125 0 0 0 1 0" />
      <feBlend mode="normal" in2="BackgroundImageFix" result="effect1_dropShadow_90_58" />
      <feBlend mode="normal" in="SourceGraphic" in2="effect1_dropShadow_90_58" result="shape" />
    </filter>
    <filter id="filter3_d_90_58" x="38.2178" y="62.3311" width="28.699" height="28.7589" filterUnits="userSpaceOnUse"
      color-interpolation-filters="sRGB">
      <feFlood flood-opacity="0" result="BackgroundImageFix" />
      <feColorMatrix in="SourceAlpha" type="matrix" values="0 0 0 0 0 0 0 0 0 0 0 0 0 0 0 0 0 0 127 0"
        result="hardAlpha" />
      <feOffset />
      <feGaussianBlur stdDeviation="4" />
      <feComposite in2="hardAlpha" operator="out" />
      <feColorMatrix type="matrix" values="0 0 0 0 1 0 0 0 0 0.80475 0 0 0 0 0.1125 0 0 0 1 0" />
      <feBlend mode="normal" in2="BackgroundImageFix" result="effect1_dropShadow_90_58" />
      <feBlend mode="normal" in="SourceGraphic" in2="effect1_dropShadow_90_58" result="shape" />
    </filter>
    <filter id="filter4_d_90_58" x="67.6577" y="56.0754" width="28.699" height="28.7589" filterUnits="userSpaceOnUse"
      color-interpolation-filters="sRGB">
      <feFlood flood-opacity="0" result="BackgroundImageFix" />
      <feColorMatrix in="SourceAlpha" type="matrix" values="0 0 0 0 0 0 0 0 0 0 0 0 0 0 0 0 0 0 127 0"
        result="hardAlpha" />
      <feOffset />
      <feGaussianBlur stdDeviation="4" />
      <feComposite in2="hardAlpha" operator="out" />
      <feColorMatrix type="matrix" values="0 0 0 0 1 0 0 0 0 0.80475 0 0 0 0 0.1125 0 0 0 1 0" />
      <feBlend mode="normal" in2="BackgroundImageFix" result="effect1_dropShadow_90_58" />
      <feBlend mode="normal" in="SourceGraphic" in2="effect1_dropShadow_90_58" result="shape" />
    </filter>
  </defs>
</svg>