<svg width="105" height="100" viewBox="0 0 105 100" fill="none" xmlns="http://www.w3.org/2000/svg">
  <g filter="url(#filter0_d_90_65)">
    <path
      d="M15.4873 25.0299C16.2876 23.9703 17.8791 23.9703 18.6793 25.0299L20.4501 27.3746C20.6894 27.6915 21.0177 27.9299 21.393 28.0596L24.1702 29.0192C25.4251 29.4528 25.9169 30.9665 25.1565 32.0549L23.4738 34.4637C23.2464 34.7892 23.121 35.175 23.1136 35.572L23.0592 38.5098C23.0346 39.8374 21.747 40.7728 20.4769 40.386L17.666 39.5299C17.2862 39.4142 16.8805 39.4142 16.5006 39.5299L13.6898 40.386C12.4196 40.7728 11.132 39.8374 11.1075 38.5098L11.053 35.572C11.0457 35.175 10.9203 34.7892 10.6929 34.4637L9.01013 32.0549C8.24972 30.9665 8.74154 29.4528 9.99651 29.0192L12.7737 28.0596C13.149 27.9299 13.4772 27.6915 13.7165 27.3746L15.4873 25.0299Z"
      fill="#FFCD1D" />
  </g>
  <g filter="url(#filter1_d_90_65)">
    <path
      d="M55.8206 13.1132C56.6208 12.0537 58.2124 12.0537 59.0126 13.1132L60.7834 15.458C61.0227 15.7748 61.3509 16.0133 61.7262 16.143L64.5034 17.1026C65.7584 17.5362 66.2502 19.0498 65.4898 20.1383L63.807 22.547C63.5796 22.8725 63.4542 23.2584 63.4469 23.6554L63.3925 26.5932C63.3679 27.9207 62.0803 28.8562 60.8101 28.4694L57.9993 27.6133C57.6194 27.4976 57.2137 27.4976 56.8339 27.6133L54.0231 28.4694C52.7529 28.8562 51.4653 27.9207 51.4407 26.5932L51.3863 23.6554C51.3789 23.2584 51.2536 22.8725 51.0262 22.547L49.3434 20.1383C48.583 19.0498 49.0748 17.5362 50.3298 17.1026L53.107 16.143C53.4823 16.0133 53.8105 15.7748 54.0498 15.458L55.8206 13.1132Z"
      fill="#FFCD1D" />
  </g>
  <g filter="url(#filter2_d_90_65)">
    <path
      d="M85.1541 29.6132C85.9543 28.5537 87.5459 28.5537 88.3461 29.6132L90.1169 31.958C90.3562 32.2748 90.6844 32.5133 91.0597 32.643L93.8369 33.6026C95.0919 34.0362 95.5837 35.5498 94.8233 36.6383L93.1405 39.047C92.9131 39.3725 92.7877 39.7584 92.7804 40.1554L92.726 43.0932C92.7014 44.4207 91.4138 45.3562 90.1436 44.9694L87.3328 44.1133C86.9529 43.9976 86.5472 43.9976 86.1674 44.1133L83.3566 44.9694C82.0864 45.3562 80.7988 44.4207 80.7742 43.0932L80.7198 40.1554C80.7124 39.7584 80.5871 39.3725 80.3596 39.047L78.6769 36.6383C77.9165 35.5498 78.4083 34.0362 79.6633 33.6026L82.4404 32.643C82.8158 32.5133 83.144 32.2748 83.3833 31.958L85.1541 29.6132Z"
      fill="#FFCD1D" />
  </g>
  <g filter="url(#filter3_d_90_65)">
    <path
      d="M86.0706 69.9465C86.8708 68.887 88.4624 68.887 89.2626 69.9465L91.0334 72.2913C91.2727 72.6082 91.6009 72.8466 91.9762 72.9763L94.7534 73.9359C96.0084 74.3695 96.5002 75.8832 95.7398 76.9716L94.057 79.3803C93.8296 79.7058 93.7042 80.0917 93.6969 80.4887L93.6425 83.4265C93.6179 84.754 92.3303 85.6895 91.0601 85.3027L88.2493 84.4466C87.8694 84.3309 87.4637 84.3309 87.0839 84.4466L84.2731 85.3027C83.0029 85.6895 81.7153 84.754 81.6907 83.4265L81.6363 80.4887C81.6289 80.0917 81.5036 79.7058 81.2762 79.3803L79.5934 76.9716C78.833 75.8832 79.3248 74.3695 80.5798 73.9359L83.357 72.9763C83.7323 72.8466 84.0605 72.6082 84.2998 72.2913L86.0706 69.9465Z"
      fill="#FFCD1D" />
  </g>
  <g filter="url(#filter4_d_90_65)">
    <path
      d="M26.4873 59.8633C27.2876 58.8037 28.8791 58.8037 29.6793 59.8633L31.4501 62.208C31.6894 62.5249 32.0177 62.7634 32.393 62.893L35.1702 63.8526C36.4251 64.2863 36.9169 65.7999 36.1565 66.8884L34.4738 69.2971C34.2464 69.6226 34.121 70.0084 34.1136 70.4054L34.0592 73.3432C34.0346 74.6708 32.747 75.6063 31.4769 75.2194L28.666 74.3634C28.2862 74.2477 27.8805 74.2477 27.5006 74.3634L24.6898 75.2194C23.4196 75.6063 22.132 74.6708 22.1075 73.3432L22.053 70.4054C22.0457 70.0084 21.9203 69.6226 21.6929 69.2971L20.0101 66.8884C19.2497 65.7999 19.7415 64.2863 20.9965 63.8526L23.7737 62.893C24.149 62.7634 24.4772 62.5249 24.7165 62.208L26.4873 59.8633Z"
      fill="#FFCD1D" />
  </g>
  <line x1="27.6646" y1="67.5599" x2="56.9979" y2="22.6433" stroke="#FFCD1D" stroke-opacity="0.44" />
  <line x1="57.5483" y1="22.4823" x2="17.215" y2="33.4823" stroke="#FFCD1D" stroke-opacity="0.44" />
  <line x1="86.5049" y1="38.0192" x2="57.1715" y2="21.5192" stroke="#FFCD1D" stroke-opacity="0.44" />
  <line x1="57.8549" y1="22.6757" x2="88.1049" y2="77.6757" stroke="#FFCD1D" stroke-opacity="0.44" />
  <defs>
    <filter id="filter0_d_90_65" x="0.648682" y="16.2352" width="32.8691" height="32.2388" filterUnits="userSpaceOnUse"
      color-interpolation-filters="sRGB">
      <feFlood flood-opacity="0" result="BackgroundImageFix" />
      <feColorMatrix in="SourceAlpha" type="matrix" values="0 0 0 0 0 0 0 0 0 0 0 0 0 0 0 0 0 0 127 0"
        result="hardAlpha" />
      <feOffset />
      <feGaussianBlur stdDeviation="4" />
      <feComposite in2="hardAlpha" operator="out" />
      <feColorMatrix type="matrix" values="0 0 0 0 1 0 0 0 0 0.80475 0 0 0 0 0.1125 0 0 0 1 0" />
      <feBlend mode="normal" in2="BackgroundImageFix" result="effect1_dropShadow_90_65" />
      <feBlend mode="normal" in="SourceGraphic" in2="effect1_dropShadow_90_65" result="shape" />
    </filter>
    <filter id="filter1_d_90_65" x="40.9819" y="4.3186" width="32.8691" height="32.2388" filterUnits="userSpaceOnUse"
      color-interpolation-filters="sRGB">
      <feFlood flood-opacity="0" result="BackgroundImageFix" />
      <feColorMatrix in="SourceAlpha" type="matrix" values="0 0 0 0 0 0 0 0 0 0 0 0 0 0 0 0 0 0 127 0"
        result="hardAlpha" />
      <feOffset />
      <feGaussianBlur stdDeviation="4" />
      <feComposite in2="hardAlpha" operator="out" />
      <feColorMatrix type="matrix" values="0 0 0 0 1 0 0 0 0 0.80475 0 0 0 0 0.1125 0 0 0 1 0" />
      <feBlend mode="normal" in2="BackgroundImageFix" result="effect1_dropShadow_90_65" />
      <feBlend mode="normal" in="SourceGraphic" in2="effect1_dropShadow_90_65" result="shape" />
    </filter>
    <filter id="filter2_d_90_65" x="70.3154" y="20.8186" width="32.8691" height="32.2388" filterUnits="userSpaceOnUse"
      color-interpolation-filters="sRGB">
      <feFlood flood-opacity="0" result="BackgroundImageFix" />
      <feColorMatrix in="SourceAlpha" type="matrix" values="0 0 0 0 0 0 0 0 0 0 0 0 0 0 0 0 0 0 127 0"
        result="hardAlpha" />
      <feOffset />
      <feGaussianBlur stdDeviation="4" />
      <feComposite in2="hardAlpha" operator="out" />
      <feColorMatrix type="matrix" values="0 0 0 0 1 0 0 0 0 0.80475 0 0 0 0 0.1125 0 0 0 1 0" />
      <feBlend mode="normal" in2="BackgroundImageFix" result="effect1_dropShadow_90_65" />
      <feBlend mode="normal" in="SourceGraphic" in2="effect1_dropShadow_90_65" result="shape" />
    </filter>
    <filter id="filter3_d_90_65" x="71.2319" y="61.1519" width="32.8691" height="32.2388" filterUnits="userSpaceOnUse"
      color-interpolation-filters="sRGB">
      <feFlood flood-opacity="0" result="BackgroundImageFix" />
      <feColorMatrix in="SourceAlpha" type="matrix" values="0 0 0 0 0 0 0 0 0 0 0 0 0 0 0 0 0 0 127 0"
        result="hardAlpha" />
      <feOffset />
      <feGaussianBlur stdDeviation="4" />
      <feComposite in2="hardAlpha" operator="out" />
      <feColorMatrix type="matrix" values="0 0 0 0 1 0 0 0 0 0.80475 0 0 0 0 0.1125 0 0 0 1 0" />
      <feBlend mode="normal" in2="BackgroundImageFix" result="effect1_dropShadow_90_65" />
      <feBlend mode="normal" in="SourceGraphic" in2="effect1_dropShadow_90_65" result="shape" />
    </filter>
    <filter id="filter4_d_90_65" x="11.6487" y="51.0687" width="32.8691" height="32.2388" filterUnits="userSpaceOnUse"
      color-interpolation-filters="sRGB">
      <feFlood flood-opacity="0" result="BackgroundImageFix" />
      <feColorMatrix in="SourceAlpha" type="matrix" values="0 0 0 0 0 0 0 0 0 0 0 0 0 0 0 0 0 0 127 0"
        result="hardAlpha" />
      <feOffset />
      <feGaussianBlur stdDeviation="4" />
      <feComposite in2="hardAlpha" operator="out" />
      <feColorMatrix type="matrix" values="0 0 0 0 1 0 0 0 0 0.80475 0 0 0 0 0.1125 0 0 0 1 0" />
      <feBlend mode="normal" in2="BackgroundImageFix" result="effect1_dropShadow_90_65" />
      <feBlend mode="normal" in="SourceGraphic" in2="effect1_dropShadow_90_65" result="shape" />
    </filter>
  </defs>
</svg>